<svg
   width="200"
   height="200"
   viewBox="0 0 200 200"
   version="1.1"
   id="svg3"
   xmlns="http://www.w3.org/2000/svg"
   xmlns:svg="http://www.w3.org/2000/svg">
  <defs
     id="defs7" />
  <path
     fill="#9393d2"
     stroke="none"
     d="m 67.472639,67.837235 c 0.148712,0.128433 0.621893,0.4867 1.223505,0.459661 1.649353,-0.0676 2.798502,-2.778224 3.20408,-3.717825 1.953543,-4.48842 4.420832,-8.719976 6.894873,-12.917741 4.022008,-6.83403 7.570836,-14.526539 18.359277,-27.991809 4.299156,-5.373946 3.467716,-4.488422 8.605056,-9.044446 2.65656,-2.359127 5.52942,-4.393786 8.82138,-5.6983999 3.52854,-1.399255 7.07062,-1.209986 9.76773,1.5750049 2.71739,2.805263 1.62908,6.212138 0.30418,9.395946 -0.99367,2.399678 -2.25096,3.900327 -4.41406,6.52984 -1.50065,1.825118 -2.04143,2.419971 -3.20409,3.839498 -1.46008,1.7778 -3.45419,4.461382 -5.52265,8.14541 -8.02374,14.533296 -13.715376,25.260901 -14.803686,27.640308 -0.34475,0.750324 -0.87876,2.102263 -0.4867,3.569106 0.25011,0.919315 0.54992,1.716183 1.14915,1.926513 1.33953,0.470176 2.784976,-1.764282 3.481226,-3.17029 10.01108,-20.103278 11.91732,-26.673675 26.22754,-43.829726 3.19056,-3.825978 7.21257,-8.956578 10.77492,-12.431049 2.52811,-2.4672739 5.38746,-4.5695369 8.62534,-6.0228679 3.98821,-1.791314 9.00388,-1.358698 10.98447,1.115343 0.75708,0.946353 1.20998,1.899474 1.43305,2.8458279 0.59485,2.541637 -0.22983,4.995399 -1.79807,7.692508 -2.88638,4.954841 -6.59068,7.98317 -7.71955,8.936291 -3.36632,2.839061 -6.27297,7.003021 -12.07953,15.33094 -10.45722,14.986198 -15.85144,31.885383 -13.51259,33.460388 0.0743,0.05407 0.35825,0.216315 0.71651,0.209555 1.90624,-0.04056 3.21086,-4.894005 3.60292,-6.245942 0.58133,-2.000861 3.8395,-7.847979 10.35581,-19.542217 4.02201,-7.212575 6.55013,-11.748313 11.22783,-16.987067 4.61686,-5.16439 10.8628,-12.086294 16.92623,-10.714085 2.74443,0.621892 5.25226,2.947221 6.17158,5.664609 0.33121,0.973399 1.03423,3.406875 -0.8044,8.091332 -2.2645,5.752485 -5.73897,8.294122 -9.11881,12.052497 -2.46051,2.737673 -4.6777,6.942183 -9.11204,15.351226 -3.20408,6.076945 -7.0909,14.249393 -10.75464,24.334819 -0.29743,0.986919 -1.08155,3.758388 -3.4204,5.259028 -3.07564,1.97383 -7.03006,0.69625 -8.5307,0.2704 -8.75378,-2.48756 -18.07537,-0.0406 -24.6593,1.68992 0,0 -13.999276,3.67725 -23.888684,15.695949 -3.744856,4.54251 -6.049914,9.36892 -6.414926,10.16655 -1.392496,3.05538 -2.994547,6.92191 -3.542075,12.26205 -1.081546,10.59241 3.190567,18.66347 11.849707,24.49706 14.215592,9.5717 35.636998,7.33425 46.060418,-2.63627 1.69668,-1.62232 5.36719,-5.13058 4.94809,-9.55141 -0.31772,-3.33929 -2.90666,-6.61773 -6.11751,-7.88178 -5.65785,-2.2307 -9.02415,3.46095 -19.08932,3.97467 -3.68403,0.18929 -9.59874,0.49347 -13.079966,-3.64346 -4.01525,-4.77909 -1.45334,-12.36344 -1.29786,-12.81634 1.2235,-3.51503 3.44067,-5.71192 4.643896,-6.74616 3.44068,-2.36588 10.68028,-6.65827 20.71839,-7.53703 4.47492,-0.39206 13.53289,-1.20323 22.32722,4.34647 12.59326,7.95614 14.7158,22.35425 14.95239,24.16583 2.29154,17.47377 -10.28145,30.59429 -15.36474,35.88712 -10.4099,10.84928 -22.14469,14.54682 -28.74889,16.54092 -5.8674,1.77104 -23.949521,6.94219 -44.69497,-0.66245 -13.161081,-4.8264 -21.205096,-12.53243 -22.96937,-14.24939 -5.434783,-5.29958 -9.882646,-11.56581 -13.14757,-18.52151 -1.453324,-3.10268 -4.752053,-10.71408 -6.103983,-23.15864 -3.251404,-29.92508 6.624481,-58.924083 17.771182,-75.072943 4.326197,-6.272982 12.579762,-18.77838 16.270541,-22.570561 2.244207,-2.305043 5.035956,-5.536168 12.194448,-9.564936 2.176618,-1.223497 4.441111,-2.31857 6.921904,-2.555157 1.80484,-0.16899 3.15001,0.337981 3.907095,1.33166 0.8382,1.101824 0.804401,2.629505 0.446142,4.184238 -1.439806,6.252695 -7.983179,14.053358 -12.316122,21.265933 -3.98821,6.624481 -6.969236,14.195317 -5.150878,15.777081 z"
     id="graasp-logo"
     style="stroke-width:0.675967" />
</svg>
