<?xml version="1.0" encoding="UTF-8" standalone="no"?>
<svg
   width="200"
   height="200"
   viewBox="0 0 200 200"
   version="1.1"
   id="svg3"
   xmlns="http://www.w3.org/2000/svg"
   xmlns:svg="http://www.w3.org/2000/svg">
  <defs
     id="defs7" />
  <g
     id="g3707"
     transform="translate(-0.55381225,0.40904952)">
    <path
       id="graasp-logo"
       d="m 151.73845,4.5936102 c -1.57032,0.055887 -3.20951,0.4141954 -4.70508,1.0859374 -3.23788,1.4533296 -6.0969,3.5561661 -8.625,6.0234374 -3.56235,3.474468 -7.58484,8.605666 -10.77539,12.43164 -14.31022,17.156034 -16.21745,23.726821 -26.22852,43.830079 -0.69625,1.406006 -2.140943,3.640097 -3.480472,3.169921 -0.599229,-0.210329 -0.898327,-1.00842 -1.148437,-1.927734 -0.39206,-1.466842 0.141578,-2.818036 0.486328,-3.568359 1.088309,-2.379405 6.779001,-13.107344 14.802731,-27.640625 2.06846,-3.684025 4.06336,-6.366733 5.52344,-8.144532 1.16266,-1.419525 1.70247,-2.014727 3.20313,-3.839843 2.1631,-2.629511 3.42039,-4.129622 4.41406,-6.529297 1.3249,-3.183805 2.41466,-6.591224 -0.30273,-9.396484 -2.69711,-2.7849883 -6.23905,-2.9734726 -9.76758,-1.574219 -3.29196,1.3046126 -6.16571,3.338141 -8.82227,5.697265 -5.13733,4.55602 -4.30632,3.670981 -8.605468,9.044922 -10.788431,13.465257 -14.337371,21.158164 -18.359375,27.992188 -2.474039,4.19776 -4.940991,8.429553 -6.894532,12.917968 -0.405577,0.9396 -1.553773,3.649197 -3.203125,3.716797 -0.601611,0.02704 -1.075897,-0.330551 -1.224609,-0.458984 -1.818356,-1.581763 1.164138,-9.152869 5.152344,-15.777344 4.332938,-7.212568 10.874648,-15.012936 12.314453,-21.265625 0.358259,-1.554731 0.392887,-3.083724 -0.445313,-4.185547 -0.757084,-0.993678 -2.101411,-1.499068 -3.90625,-1.330078 -2.48079,0.236587 -4.745259,1.331192 -6.921875,2.554688 -7.158484,4.028764 -9.951107,7.259412 -12.195312,9.564453 -3.690775,3.792177 -11.945292,16.297337 -16.271484,22.570312 -11.14669,16.148844 -21.020933,45.149173 -17.769532,75.074223 1.351929,12.44455 4.650193,20.05553 6.103516,23.1582 3.264921,6.9557 7.711707,13.22191 13.146484,18.52149 1.764272,1.71696 9.809636,9.42165 22.970703,14.24804 19.545535,7.16479 36.590745,3.01749 43.419925,1.0293 -0.50824,-2.28926 -0.81456,-4.62613 -1.20118,-6.9375 -0.0515,-0.43624 -0.0599,-0.90376 -0.58593,-0.96875 -1.97695,1.38654 -3.92528,2.7349 -5.84766,4.13867 -2.85505,2.26428 -7.210596,2.80429 -10.291014,0.67969 -3.064439,-2.49295 -5.630272,-5.52964 -8.523438,-8.21094 -2.728199,-2.39011 -4.04785,-6.53532 -2.5625,-9.94726 1.484579,-2.71866 3.402312,-5.17536 5.207032,-7.68555 0.30878,-0.32811 0.488775,-0.66555 0.203125,-1.06641 -2.335302,-0.41282 -4.668109,-0.83928 -7.011719,-1.20312 -3.582105,-0.42719 -5.981573,-2.58054 -8.077986,-6.07915 -0.929937,-2.56164 -1.569965,-5.54988 -2.043154,-8.08353 -0.607224,-3.25132 -0.303799,-8.59759 0.207078,-13.60099 0.547527,-5.34014 2.150474,-9.2083 3.542968,-12.26367 0.365012,-0.79763 2.66921,-5.62351 6.414063,-10.16602 9.889398,-12.018689 23.888675,-15.695316 23.888675,-15.695316 6.58392,-1.730519 15.90639,-4.177011 24.66016,-1.689454 1.50064,0.42585 5.45366,1.702344 8.52929,-0.271484 2.33885,-1.500638 3.12445,-4.270894 3.42188,-5.257812 3.66374,-10.085416 7.54983,-18.258999 10.75391,-24.335938 4.43433,-8.409035 6.65082,-12.613892 9.11132,-15.351562 3.37984,-3.758372 6.85465,-6.300256 9.11914,-12.052735 1.83863,-4.684452 1.1359,-7.116446 0.80469,-8.089844 -0.91932,-2.717385 -3.42745,-5.044124 -6.17187,-5.666015 -6.06343,-1.372208 -12.30893,5.550459 -16.92578,10.714844 -4.6777,5.238748 -7.20651,9.77376 -11.22852,16.986328 -6.5163,11.694226 -9.77414,17.542109 -10.35547,19.542968 -0.39206,1.351936 -1.69728,6.205534 -3.60351,6.246094 -0.35826,0.0068 -0.6425,-0.154914 -0.7168,-0.208984 -2.33885,-1.575004 3.05646,-18.474755 13.51367,-33.460938 5.80655,-8.32791 8.71376,-12.492973 12.08008,-15.332031 1.12887,-0.95312 4.83237,-3.980711 7.71875,-8.935547 1.56824,-2.697106 2.39368,-5.149771 1.79883,-7.6914057 -0.22307,-0.946353 -0.67652,-1.9013042 -1.4336,-2.8476563 -1.23787,-1.5462741 -3.6621,-2.2943163 -6.27929,-2.2011718 z"
       style="fill:#5050d2;fill-opacity:1" />
    <g
       id="g994"
       transform="matrix(0.8184557,0,0,0.8184557,20.58374,38.169969)"
       style="fill:#5050d2;fill-opacity:1">
      <path
         d="m 184.94529,122.9428 -14.44667,-2.36133 c -0.84578,-2.89911 -2.002,-5.68578 -3.44911,-8.32334 l 8.43333,-12.01933 c 0.682,-0.970447 0.56467,-2.292892 -0.27377,-3.133781 l -9.50645,-9.501557 c -0.84822,-0.845778 -2.18289,-0.955778 -3.15578,-0.254222 l -11.83844,8.509113 c -2.662,-1.471556 -5.47312,-2.640001 -8.38934,-3.488223 l -2.52022,-14.388002 c -0.20533,-1.168445 -1.21978,-2.024001 -2.40778,-2.024001 h -13.44445 c -1.19777,0 -2.21955,0.867778 -2.41266,2.050889 l -2.33689,14.30978 c -2.93334,0.843334 -5.74934,1.999556 -8.40156,3.451557 L 98.988833,87.337018 c -0.975334,-0.696667 -2.302667,-0.584222 -3.15089,0.259111 l -9.501556,9.501557 c -0.838445,0.838445 -0.955778,2.158445 -0.273778,3.128894 l 8.308668,11.88733 c -1.47889,2.67667 -2.657112,5.50978 -3.515112,8.45778 l -14.253558,2.37356 c -1.178222,0.19555 -2.043556,1.21733 -2.043556,2.41022 v 13.44444 c 0,1.18556 0.850667,2.2 2.016667,2.40778 l 14.253558,2.52756 c 0.853111,2.94067 2.031334,5.77378 3.515112,8.45778 l -8.411335,11.76511 c -0.694222,0.97044 -0.584222,2.30267 0.259111,3.15089 l 9.504002,9.51133 c 0.838444,0.83845 2.160889,0.95578 3.131333,0.27378 l 11.904451,-8.338 c 2.67177,1.46911 5.49511,2.63511 8.42111,3.48089 l 2.38578,14.32689 c 0.19311,1.17578 1.21244,2.03867 2.40777,2.03867 h 13.44445 c 1.18556,0 2.2,-0.85067 2.40533,-2.01667 l 2.55445,-14.39778 c 2.93089,-0.86289 5.73956,-2.03622 8.38444,-3.50778 l 11.99001,8.41134 c 0.97289,0.68689 2.29289,0.56711 3.13377,-0.27134 l 9.50401,-9.51133 c 0.84577,-0.84822 0.95577,-2.18533 0.25422,-3.15822 l -8.55067,-11.87267 c 1.44956,-2.64 2.60089,-5.43156 3.43933,-8.33067 l 14.46623,-2.53978 c 1.17089,-0.20533 2.02155,-1.22222 2.02155,-2.40778 v -13.44444 c 0.002,-1.19778 -0.86533,-2.21956 -2.04844,-2.41267 z m -54.1689,26.34867 c -9.45022,0 -17.11111,-7.66089 -17.11111,-17.11111 0,-9.45023 7.66089,-17.11112 17.11111,-17.11112 9.45023,0 17.11112,7.66089 17.11112,17.11112 0,9.45022 -7.66089,17.11111 -17.11112,17.11111 z"
         id="path51"
         style="display:inline;mix-blend-mode:normal;fill:#5050d2;fill-opacity:1;stroke-width:2.44444" />
    </g>
  </g>
</svg>
