<svg xmlns="http://www.w3.org/2000/svg" viewBox="0 0 750 500"><g id="freepik--background-simple--inject-29"><path d="M713.57,188S697.55,106.35,583,55.9,415.5,55.65,357.93,76.6,269.12,68.71,173,55.1-6.36,176.82,20.87,282.53,108.16,425.87,239.49,449.9s209-55.26,301.91-40.84S744.8,342.59,713.57,188Z" style="fill:#5050D2"></path><path d="M713.57,188S697.55,106.35,583,55.9,415.5,55.65,357.93,76.6,269.12,68.71,173,55.1-6.36,176.82,20.87,282.53,108.16,425.87,239.49,449.9s209-55.26,301.91-40.84S744.8,342.59,713.57,188Z" style="fill:#fff;opacity:0.7000000000000001"></path></g><g id="freepik--Floor--inject-29"><path d="M707.07,402.35H532.39a.5.5,0,0,1,0-1H707.07a.5.5,0,0,1,0,1Z" style="fill:#263238"></path><path d="M525,402.35H72.87a.5.5,0,0,1,0-1H525a.5.5,0,0,1,0,1Z" style="fill:#263238"></path><path d="M65.48,402.35H49.35a.5.5,0,0,1,0-1H65.48a.5.5,0,1,1,0,1Z" style="fill:#263238"></path></g><g id="freepik--Plant--inject-29"><rect x="653.69" y="247.48" width="2" height="134.15" transform="translate(-29.11 69.65) rotate(-5.96)" style="fill:#263238"></rect><rect x="655.25" y="347.8" width="2" height="9.18" transform="translate(-62.58 547.65) rotate(-43.43)" style="fill:#263238"></rect><path d="M655,351.06a7.14,7.14,0,0,0-2.51-5.35c-1.62-1.45-10.15-5-11-2C640.66,346.94,649.39,353.36,655,351.06Z" style="fill:#5050D2"></path><path d="M652.42,352a14.42,14.42,0,0,1-8.87-3.66c-1.95-1.72-2.85-3.48-2.49-4.84a1.94,1.94,0,0,1,1.43-1.37c2.78-.83,8.91,1.88,10.34,3.16a7.57,7.57,0,0,1,2.68,5.76l0,.31-.29.12A7.2,7.2,0,0,1,652.42,352Zm-8.7-9a3.37,3.37,0,0,0-.94.11,1,1,0,0,0-.75.68c-.26.95.58,2.41,2.18,3.83,2.72,2.4,7.08,4.18,10.3,3.08a6.73,6.73,0,0,0-2.34-4.63C651,345.07,646.37,343,643.72,343Z" style="fill:#263238"></path><rect x="650.71" y="343.75" width="0.5" height="9.57" transform="translate(10.89 716.68) rotate(-58.07)" style="fill:#263238"></rect><rect x="656.84" y="362.98" width="2" height="9.18" transform="translate(-72.57 552.95) rotate(-43.44)" style="fill:#263238"></rect><path d="M656.6,366.23a7.14,7.14,0,0,0-2.51-5.35c-1.63-1.45-10.15-5-11-2C642.25,362.11,651,368.53,656.6,366.23Z" style="fill:#5050D2"></path><path d="M654,367.21a14.33,14.33,0,0,1-8.86-3.66c-1.95-1.72-2.86-3.48-2.49-4.83a1.91,1.91,0,0,1,1.43-1.38c2.78-.83,8.9,1.88,10.34,3.17a7.63,7.63,0,0,1,2.68,5.75l0,.32-.29.12A7.43,7.43,0,0,1,654,367.21Zm-8.7-9a3.35,3.35,0,0,0-.94.12,1,1,0,0,0-.75.68c-.25.94.58,2.41,2.19,3.82,2.72,2.41,7.07,4.18,10.29,3.09a6.76,6.76,0,0,0-2.34-4.64A18.43,18.43,0,0,0,645.3,358.18Z" style="fill:#263238"></path><rect x="652.29" y="358.92" width="0.5" height="9.57" transform="translate(-1.24 725.18) rotate(-58.07)" style="fill:#263238"></rect><rect x="651.39" y="310.78" width="2" height="9.18" transform="translate(-38.19 534.86) rotate(-43.43)" style="fill:#263238"></rect><path d="M651.15,314a7.14,7.14,0,0,0-2.51-5.35c-1.62-1.45-10.15-5-11-2C636.8,309.91,645.53,316.33,651.15,314Z" style="fill:#5050D2"></path><path d="M648.55,315a14.39,14.39,0,0,1-8.86-3.66c-2-1.72-2.86-3.48-2.49-4.83a1.93,1.93,0,0,1,1.43-1.38c2.78-.83,8.9,1.88,10.34,3.16a7.61,7.61,0,0,1,2.68,5.76l0,.32-.29.12A7.43,7.43,0,0,1,648.55,315Zm-8.7-9a3.23,3.23,0,0,0-.93.12.94.94,0,0,0-.76.68c-.25.94.59,2.41,2.19,3.82,2.72,2.4,7.07,4.18,10.3,3.09a6.77,6.77,0,0,0-2.35-4.64A18.39,18.39,0,0,0,639.85,306Z" style="fill:#263238"></path><rect x="646.84" y="306.72" width="0.5" height="9.57" transform="translate(40.5 695.96) rotate(-58.07)" style="fill:#263238"></rect><rect x="652.97" y="325.95" width="2" height="9.18" transform="translate(-48.17 540.15) rotate(-43.44)" style="fill:#263238"></rect><path d="M652.73,329.21a7.17,7.17,0,0,0-2.51-5.36c-1.62-1.45-10.15-5-11-2C638.38,325.09,647.11,331.5,652.73,329.21Z" style="fill:#5050D2"></path><path d="M650.14,330.18a14.41,14.41,0,0,1-8.87-3.65c-1.95-1.72-2.85-3.49-2.49-4.84a2,2,0,0,1,1.43-1.38c2.79-.83,8.91,1.89,10.34,3.17a7.57,7.57,0,0,1,2.68,5.76l0,.31-.29.12A7.38,7.38,0,0,1,650.14,330.18Zm-8.7-9a3.35,3.35,0,0,0-.94.12c-.56.17-.7.47-.75.68-.26.94.58,2.41,2.18,3.83,2.72,2.4,7.08,4.18,10.3,3.08a6.76,6.76,0,0,0-2.34-4.64C648.76,323.22,644.09,321.15,641.44,321.15Z" style="fill:#263238"></path><rect x="648.42" y="321.89" width="0.5" height="9.57" transform="translate(28.37 704.45) rotate(-58.07)" style="fill:#263238"></rect><rect x="648.82" y="286.13" width="2" height="9.18" transform="translate(-21.93 526.39) rotate(-43.44)" style="fill:#263238"></rect><path d="M648.58,289.38a7.13,7.13,0,0,0-2.52-5.35c-1.62-1.45-10.14-5-10.95-2C634.23,285.26,643,291.68,648.58,289.38Z" style="fill:#5050D2"></path><path d="M646,290.36a14.33,14.33,0,0,1-8.86-3.66c-2-1.72-2.86-3.48-2.49-4.83a1.9,1.9,0,0,1,1.43-1.38c2.78-.83,8.9,1.88,10.34,3.17a7.63,7.63,0,0,1,2.68,5.75l0,.32-.29.12A7.43,7.43,0,0,1,646,290.36Zm-8.7-9a3.35,3.35,0,0,0-.94.12.94.94,0,0,0-.75.68c-.25.94.58,2.41,2.19,3.82,2.72,2.4,7.07,4.19,10.29,3.09a6.76,6.76,0,0,0-2.34-4.64A18.43,18.43,0,0,0,637.28,281.33Z" style="fill:#263238"></path><rect x="644.27" y="282.07" width="0.5" height="9.57" transform="translate(60.21 682.16) rotate(-58.07)" style="fill:#263238"></rect><rect x="646.23" y="261.37" width="2" height="9.18" transform="translate(-5.61 517.83) rotate(-43.44)" style="fill:#263238"></rect><path d="M646,264.63a7.17,7.17,0,0,0-2.51-5.36c-1.62-1.45-10.15-5-11-2C631.64,260.51,640.37,266.92,646,264.63Z" style="fill:#5050D2"></path><path d="M643.4,265.6a14.43,14.43,0,0,1-8.87-3.65c-1.94-1.72-2.85-3.49-2.49-4.84a2,2,0,0,1,1.43-1.38c2.79-.83,8.91,1.89,10.34,3.17a7.57,7.57,0,0,1,2.68,5.76l0,.31-.29.12A7.38,7.38,0,0,1,643.4,265.6Zm-8.7-9a3.3,3.3,0,0,0-.94.12,1,1,0,0,0-.75.68c-.26.94.58,2.41,2.18,3.83,2.73,2.4,7.08,4.18,10.3,3.08a6.76,6.76,0,0,0-2.34-4.64C642,258.64,637.35,256.57,634.7,256.57Z" style="fill:#263238"></path><rect x="641.68" y="257.31" width="0.5" height="9.57" transform="translate(80 668.31) rotate(-58.07)" style="fill:#263238"></rect><rect x="656.16" y="341.84" width="9.18" height="2" transform="translate(23.18 727.07) rotate(-58.5)" style="fill:#263238"></rect><path d="M661.68,341.27a7.15,7.15,0,0,1,1.36-5.75c1.28-1.75,8.89-7,10.3-4.25C674.87,334.28,667.66,342.36,661.68,341.27Z" style="fill:#5050D2"></path><path d="M662.78,341.87a6.75,6.75,0,0,1-1.19-.1l-.31-.06-.08-.3a7.65,7.65,0,0,1,1.43-6.19c1.14-1.55,6.57-5.47,9.47-5.23a1.92,1.92,0,0,1,1.68,1.05c.64,1.25.12,3.16-1.43,5.24C670.17,339.21,666.34,341.87,662.78,341.87Zm-.68-1c3.39.41,7.28-2.23,9.44-5.14,1.28-1.72,1.8-3.32,1.35-4.19A1,1,0,0,0,672,331c-2.38-.17-7.56,3.45-8.57,4.83A6.77,6.77,0,0,0,662.1,340.83Z" style="fill:#263238"></path><rect x="660.28" y="337.53" width="10.11" height="0.5" transform="translate(-48.92 553.67) rotate(-43.73)" style="fill:#263238"></rect><rect x="651.99" y="301.91" width="9.18" height="2" transform="translate(55.24 704.45) rotate(-58.5)" style="fill:#263238"></rect><path d="M657.52,301.34a7.12,7.12,0,0,1,1.35-5.75c1.29-1.75,8.89-7,10.3-4.25C670.71,294.35,663.49,302.43,657.52,301.34Z" style="fill:#5050D2"></path><path d="M658.61,301.94a6.64,6.64,0,0,1-1.18-.1l-.31-.06-.09-.3a7.65,7.65,0,0,1,1.43-6.19c1.15-1.55,6.58-5.46,9.47-5.23a2,2,0,0,1,1.69,1.05c.63,1.25.11,3.16-1.44,5.24C666,299.28,662.17,301.94,658.61,301.94Zm-.67-1c3.39.42,7.27-2.23,9.44-5.14,1.27-1.72,1.79-3.32,1.34-4.2a1,1,0,0,0-.87-.51c-2.38-.18-7.56,3.45-8.58,4.83A6.84,6.84,0,0,0,657.94,300.9Z" style="fill:#263238"></path><rect x="656.12" y="297.6" width="10.11" height="0.5" transform="translate(-22.47 539.71) rotate(-43.73)" style="fill:#263238"></rect><rect x="650.16" y="284.36" width="9.18" height="2" transform="translate(69.33 694.51) rotate(-58.5)" style="fill:#263238"></rect><path d="M655.68,283.8A7.17,7.17,0,0,1,657,278c1.28-1.75,8.89-7,10.3-4.25C668.87,276.8,661.66,284.88,655.68,283.8Z" style="fill:#5050D2"></path><path d="M656.78,284.39a6.83,6.83,0,0,1-1.19-.1l-.3-.06-.09-.3a7.65,7.65,0,0,1,1.43-6.19c1.14-1.55,6.57-5.47,9.47-5.23a1.94,1.94,0,0,1,1.68,1.05c.64,1.25.12,3.16-1.43,5.25C664.17,281.73,660.34,284.39,656.78,284.39Zm-.68-1c3.41.42,7.28-2.23,9.44-5.14,1.28-1.72,1.8-3.32,1.35-4.19a.93.93,0,0,0-.87-.51c-2.38-.18-7.56,3.44-8.58,4.82A6.77,6.77,0,0,0,656.1,283.35Z" style="fill:#263238"></path><rect x="654.28" y="280.05" width="10.11" height="0.5" transform="translate(-10.85 533.58) rotate(-43.73)" style="fill:#263238"></rect><rect x="647.47" y="258.63" width="9.18" height="2" transform="translate(89.98 679.94) rotate(-58.5)" style="fill:#263238"></rect><path d="M653,258.07a7.14,7.14,0,0,1,1.35-5.76c1.29-1.75,8.89-7,10.3-4.25C666.19,251.08,659,259.16,653,258.07Z" style="fill:#5050D2"></path><path d="M654.1,258.67a6.75,6.75,0,0,1-1.19-.11l-.31-.05-.08-.31A7.55,7.55,0,0,1,654,252c1.14-1.56,6.59-5.47,9.46-5.24a1.94,1.94,0,0,1,1.69,1.06c.64,1.24.11,3.16-1.44,5.24C661.49,256,657.65,258.67,654.1,258.67Zm-.68-1c3.41.41,7.27-2.23,9.44-5.15,1.27-1.71,1.79-3.32,1.35-4.19a1,1,0,0,0-.88-.51c-2.4-.19-7.56,3.45-8.57,4.83A6.77,6.77,0,0,0,653.42,257.63Z" style="fill:#263238"></path><rect x="651.6" y="254.33" width="10.11" height="0.5" transform="translate(6.19 524.58) rotate(-43.73)" style="fill:#263238"></rect><path d="M647.61,247.1a7.18,7.18,0,0,1,1.35-5.76c1.29-1.75,8.89-7,10.31-4.25C660.8,240.11,653.59,248.18,647.61,247.1Z" style="fill:#5050D2"></path><path d="M648.71,247.7a6.75,6.75,0,0,1-1.19-.11l-.31-.06-.08-.3a7.57,7.57,0,0,1,1.43-6.19c1.14-1.55,6.57-5.46,9.46-5.23a1.94,1.94,0,0,1,1.69,1.05c.64,1.25.11,3.17-1.44,5.25C656.1,245,652.26,247.7,648.71,247.7Zm-.68-1c3.38.41,7.27-2.24,9.44-5.15,1.28-1.71,1.79-3.32,1.35-4.19a.93.93,0,0,0-.88-.51c-2.36-.18-7.56,3.45-8.57,4.83A6.76,6.76,0,0,0,648,246.66Z" style="fill:#263238"></path><rect x="646.21" y="243.36" width="10.11" height="0.5" transform="translate(12.28 517.81) rotate(-43.73)" style="fill:#263238"></rect><path d="M648,247.4a7.15,7.15,0,0,1-5.58-2c-1.61-1.46-6.05-9.58-3.15-10.69C642.46,233.55,649.74,241.57,648,247.4Z" style="fill:#5050D2"></path><path d="M647.39,247.94a7.84,7.84,0,0,1-5.28-2.12c-1.42-1.3-4.75-7.11-4.21-10a2,2,0,0,1,1.23-1.57c1.3-.5,3.15.22,5.06,2,3,2.75,5.43,7.51,4.32,11.27l-.08.3-.31,0A4.23,4.23,0,0,1,647.39,247.94ZM640,235.14a1.51,1.51,0,0,0-.53.09,1,1,0,0,0-.6.82c-.44,2.35,2.64,7.88,3.91,9a6.75,6.75,0,0,0,4.85,1.86c.76-3.33-1.46-7.47-4.13-9.93A6,6,0,0,0,640,235.14Z" style="fill:#263238"></path><polygon points="647.84 247.55 641.65 239.55 642.05 239.25 648.23 247.25 647.84 247.55" style="fill:#263238"></polygon><rect x="610.46" y="331.93" width="134.15" height="2" transform="translate(276.29 972.38) rotate(-84.06)" style="fill:#263238"></rect><rect x="670.27" y="365.69" width="2" height="9.18" transform="matrix(0.85, -0.52, 0.52, 0.85, -94.52, 406.01)" style="fill:#263238"></rect><path d="M670.33,368.72A7.14,7.14,0,0,0,669,363c-1.28-1.75-8.89-7-10.3-4.25C657.14,361.74,664.36,369.81,670.33,368.72Z" style="fill:#5050D2"></path><path d="M669.23,369.32c-3.56,0-7.39-2.66-9.56-5.58-1.56-2.08-2.08-4-1.44-5.24a1.93,1.93,0,0,1,1.68-1.06c2.89-.23,8.33,3.68,9.47,5.23a7.61,7.61,0,0,1,1.43,6.19l-.08.3-.31,0A5.92,5.92,0,0,1,669.23,369.32Zm-9.05-10.89H660a.94.94,0,0,0-.87.51c-.45.87.07,2.48,1.35,4.19,2.17,2.91,6.07,5.54,9.44,5.14a6.77,6.77,0,0,0-1.34-5C667.58,361.92,662.64,358.43,660.18,358.43Z" style="fill:#263238"></path><polygon points="670.16 368.9 663.25 362.28 663.6 361.92 670.5 368.54 670.16 368.9" style="fill:#263238"></polygon><rect x="674.11" y="328.66" width="2" height="9.18" transform="matrix(0.85, -0.52, 0.52, 0.85, -74.58, 402.55)" style="fill:#263238"></rect><path d="M674.17,331.69a7.11,7.11,0,0,0-1.35-5.75c-1.29-1.75-8.9-7-10.31-4.25C661,324.71,668.2,332.78,674.17,331.69Z" style="fill:#5050D2"></path><path d="M673.07,332.29c-3.55,0-7.38-2.66-9.56-5.58-1.55-2.08-2.08-4-1.44-5.24a1.93,1.93,0,0,1,1.68-1.06c2.86-.23,8.33,3.68,9.47,5.23a7.63,7.63,0,0,1,1.44,6.19l-.09.3-.31.06A6.75,6.75,0,0,1,673.07,332.29Zm-9-10.89h-.19a1,1,0,0,0-.88.51c-.45.87.07,2.48,1.35,4.19,2.17,2.91,6.07,5.56,9.44,5.14a6.8,6.8,0,0,0-1.33-5C671.42,324.89,666.49,321.4,664,321.4Z" style="fill:#263238"></path><polygon points="674 331.87 667.1 325.25 667.44 324.89 674.35 331.51 674 331.87" style="fill:#263238"></polygon><rect x="672.53" y="343.84" width="2" height="9.18" transform="translate(-82.75 404.01) rotate(-31.56)" style="fill:#263238"></rect><path d="M672.6,346.87a7.17,7.17,0,0,0-1.36-5.76c-1.29-1.75-8.89-7-10.3-4.24C659.4,339.88,666.62,348,672.6,346.87Z" style="fill:#5050D2"></path><path d="M671.5,347.47c-3.56,0-7.39-2.66-9.57-5.59-1.55-2.08-2.07-4-1.44-5.24a1.94,1.94,0,0,1,1.69-1.05h.26c2.95,0,8.1,3.73,9.2,5.24a7.57,7.57,0,0,1,1.44,6.18l-.08.3-.31.06A6.75,6.75,0,0,1,671.5,347.47Zm-9-10.89h-.19a1,1,0,0,0-.88.51c-.44.88.08,2.48,1.36,4.2,2.16,2.91,6.06,5.54,9.44,5.14a6.75,6.75,0,0,0-1.34-5C669.85,340.06,664.91,336.58,662.45,336.58Z" style="fill:#263238"></path><polygon points="672.43 347.05 665.52 340.43 665.87 340.06 672.77 346.69 672.43 347.05" style="fill:#263238"></polygon><rect x="676.67" y="304.01" width="2" height="9.18" transform="matrix(0.85, -0.52, 0.52, 0.85, -61.3, 400.24)" style="fill:#263238"></rect><path d="M676.73,307a7.14,7.14,0,0,0-1.36-5.75c-1.28-1.75-8.89-7-10.3-4.25C663.54,300.06,670.76,308.13,676.73,307Z" style="fill:#5050D2"></path><path d="M675.63,307.64c-3.56,0-7.39-2.66-9.56-5.58-1.56-2.08-2.08-4-1.44-5.24a1.93,1.93,0,0,1,1.68-1.06c2.9-.28,8.33,3.68,9.47,5.23a7.55,7.55,0,0,1,1.43,6.18l-.08.31-.31,0A5.92,5.92,0,0,1,675.63,307.64Zm-9-10.89h-.2a.94.94,0,0,0-.87.51c-.45.87.07,2.48,1.35,4.19,2.17,2.91,6.07,5.54,9.44,5.14a6.77,6.77,0,0,0-1.34-5C674,300.24,669,296.75,666.59,296.75Z" style="fill:#263238"></path><polygon points="676.56 307.22 669.65 300.6 670 300.24 676.9 306.86 676.56 307.22" style="fill:#263238"></polygon><rect x="679.24" y="279.26" width="2" height="9.18" transform="translate(-47.97 397.86) rotate(-31.55)" style="fill:#263238"></rect><path d="M679.3,282.28a7.14,7.14,0,0,0-1.36-5.75c-1.28-1.75-8.89-7-10.3-4.25C666.11,275.3,673.33,283.37,679.3,282.28Z" style="fill:#5050D2"></path><path d="M678.2,282.88c-3.56,0-7.39-2.66-9.56-5.58-1.56-2.08-2.08-4-1.45-5.24a2,2,0,0,1,1.69-1.06c2.87-.23,8.33,3.68,9.47,5.23a7.61,7.61,0,0,1,1.43,6.19l-.08.3-.31.06A6.75,6.75,0,0,1,678.2,282.88ZM669.15,272H669a.93.93,0,0,0-.87.51c-.45.87.07,2.48,1.35,4.19,2.17,2.91,6.07,5.55,9.44,5.14a6.77,6.77,0,0,0-1.34-5C676.55,275.48,671.61,272,669.15,272Z" style="fill:#263238"></path><polygon points="679.13 282.46 672.23 275.84 672.57 275.48 679.47 282.1 679.13 282.46" style="fill:#263238"></polygon><rect x="673.04" y="360.86" width="9.18" height="2" transform="translate(-50.95 605.36) rotate(-46.58)" style="fill:#263238"></rect><path d="M678.87,360.52a7.17,7.17,0,0,1,2.51-5.36c1.62-1.44,10.15-5,11-2C693.22,356.39,684.49,362.81,678.87,360.52Z" style="fill:#5050D2"></path><path d="M681.46,361.5a7.23,7.23,0,0,1-2.78-.52l-.29-.11,0-.32a7.65,7.65,0,0,1,2.68-5.76c1.43-1.28,7.56-4,10.34-3.17a1.93,1.93,0,0,1,1.43,1.38c.37,1.35-.54,3.11-2.49,4.83A14.35,14.35,0,0,1,681.46,361.5Zm-2.09-1.33c3.23,1.1,7.58-.68,10.3-3.09,1.6-1.41,2.44-2.88,2.18-3.82-.05-.22-.19-.52-.75-.68-2.29-.68-8.11,1.81-9.39,3A6.78,6.78,0,0,0,679.37,360.17Z" style="fill:#263238"></path><rect x="678.11" y="357.6" width="10.11" height="0.5" transform="translate(-86.06 413.29) rotate(-31.77)" style="fill:#263238"></rect><rect x="677.19" y="320.92" width="9.18" height="2" transform="translate(-20.65 595.88) rotate(-46.58)" style="fill:#263238"></rect><path d="M683,320.59a7.13,7.13,0,0,1,2.5-5.36c1.62-1.45,10.15-5,11-2C697.36,316.46,688.64,322.88,683,320.59Z" style="fill:#5050D2"></path><path d="M685.61,321.56a7.34,7.34,0,0,1-2.78-.51l-.29-.12,0-.31a7.58,7.58,0,0,1,2.67-5.76c1.44-1.28,7.56-4,10.34-3.17a1.92,1.92,0,0,1,1.43,1.37c.37,1.36-.54,3.12-2.48,4.84A14.39,14.39,0,0,1,685.61,321.56Zm-2.09-1.32c3.23,1.1,7.57-.69,10.29-3.09,1.61-1.42,2.44-2.88,2.19-3.83a1,1,0,0,0-.75-.68c-2.3-.67-8.11,1.82-9.39,3A6.79,6.79,0,0,0,683.52,320.24Z" style="fill:#263238"></path><rect x="682.26" y="317.67" width="10.11" height="0.5" transform="translate(-64.41 409.49) rotate(-31.77)" style="fill:#263238"></rect><rect x="679.01" y="303.38" width="9.18" height="2" transform="translate(-7.33 591.72) rotate(-46.58)" style="fill:#263238"></rect><path d="M684.84,303a7.12,7.12,0,0,1,2.51-5.36c1.62-1.45,10.14-5,10.95-2C699.18,298.91,690.46,305.33,684.84,303Z" style="fill:#5050D2"></path><path d="M687.43,304a7.38,7.38,0,0,1-2.78-.51l-.29-.12,0-.31a7.58,7.58,0,0,1,2.67-5.76c1.44-1.28,7.55-4,10.34-3.17a1.92,1.92,0,0,1,1.43,1.37c.37,1.36-.54,3.12-2.48,4.84A14.39,14.39,0,0,1,687.43,304Zm-2.09-1.32c3.23,1.1,7.58-.69,10.29-3.09,1.61-1.41,2.44-2.88,2.19-3.82a.94.94,0,0,0-.75-.68c-2.29-.69-8.11,1.81-9.39,3A6.8,6.8,0,0,0,685.34,302.69Z" style="fill:#263238"></path><rect x="684.08" y="300.12" width="10.11" height="0.5" transform="translate(-54.9 407.82) rotate(-31.77)" style="fill:#263238"></rect><rect x="681.68" y="277.65" width="9.18" height="2" transform="translate(12.19 585.61) rotate(-46.58)" style="fill:#263238"></rect><path d="M687.51,277.31A7.1,7.1,0,0,1,690,272c1.61-1.45,10.14-5,11-2C701.85,273.18,693.13,279.6,687.51,277.31Z" style="fill:#5050D2"></path><path d="M690.1,278.29a7.2,7.2,0,0,1-2.78-.52l-.29-.11,0-.32a7.58,7.58,0,0,1,2.67-5.76c1.44-1.28,7.56-4,10.34-3.17a1.93,1.93,0,0,1,1.43,1.38c.37,1.35-.54,3.11-2.48,4.83A14.4,14.4,0,0,1,690.1,278.29ZM688,277c3.23,1.09,7.57-.69,10.29-3.09,1.61-1.42,2.44-2.89,2.19-3.83a.94.94,0,0,0-.75-.68c-2.3-.69-8.11,1.82-9.39,3A6.73,6.73,0,0,0,688,277Z" style="fill:#263238"></path><rect x="686.75" y="274.4" width="10.11" height="0.5" transform="translate(-40.95 405.37) rotate(-31.77)" style="fill:#263238"></rect><path d="M684.49,265.47a7.17,7.17,0,0,1,2.51-5.36c1.62-1.45,10.15-5,11-2C698.84,261.34,690.11,267.76,684.49,265.47Z" style="fill:#5050D2"></path><path d="M687.09,266.44a7.43,7.43,0,0,1-2.79-.51l-.29-.12,0-.31a7.65,7.65,0,0,1,2.68-5.76c1.43-1.29,7.55-4,10.34-3.18a2,2,0,0,1,1.43,1.38c.37,1.36-.54,3.12-2.49,4.84A14.39,14.39,0,0,1,687.09,266.44Zm-2.1-1.32c3.23,1.09,7.58-.69,10.3-3.09,1.6-1.42,2.44-2.88,2.18-3.83-.05-.21-.19-.51-.75-.68-2.29-.67-8.11,1.82-9.39,3A6.81,6.81,0,0,0,685,265.12Z" style="fill:#263238"></path><rect x="683.73" y="262.55" width="10.11" height="0.5" transform="translate(-35.17 402.01) rotate(-31.77)" style="fill:#263238"></rect><path d="M684.84,265.85a7.15,7.15,0,0,1-5.06-3.06c-1.27-1.76-3.95-10.62-.88-11.11C682.24,251.15,687.71,260.5,684.84,265.85Z" style="fill:#5050D2"></path><path d="M685.14,266.36h-.32a7.62,7.62,0,0,1-5.44-3.27c-1.13-1.56-3.19-7.93-2.08-10.61a2,2,0,0,1,1.52-1.28c1.38-.22,3,.86,4.55,3,2.36,3.3,3.77,8.46,1.92,11.91Zm-5.95-14.2-.21,0a.93.93,0,0,0-.75.67c-.92,2.21.95,8.26,2,9.65a6.81,6.81,0,0,0,4.36,2.81c1.43-3.1.11-7.61-2-10.56C681.4,253.13,680.14,252.16,679.19,252.16Z" style="fill:#263238"></path><rect x="682.39" y="256.24" width="0.5" height="10.11" transform="translate(-45.67 323.25) rotate(-25.81)" style="fill:#263238"></rect><rect x="667.59" y="211.88" width="2" height="168.73" style="fill:#263238"></rect><rect x="664.93" y="347.01" width="2" height="9.18" transform="translate(-76.48 477.73) rotate(-37.48)" style="fill:#263238"></rect><path d="M664.84,350.14a7.15,7.15,0,0,0-2-5.58c-1.46-1.61-9.57-6.06-10.68-3.16C651,344.56,659,351.84,664.84,350.14Z" style="fill:#5050D2"></path><path d="M663,350.89c-3.35,0-7-2.11-9.32-4.6-1.75-1.91-2.47-3.76-2-5.07a1.94,1.94,0,0,1,1.57-1.22c2.86-.53,8.66,2.79,10,4.22a7.59,7.59,0,0,1,2.07,6l-.05.31-.3.09A6.75,6.75,0,0,1,663,350.89Zm-9-9.95a2.67,2.67,0,0,0-.5,0,1,1,0,0,0-.82.6c-.35.91.33,2.46,1.78,4,2.46,2.67,6.6,4.89,9.92,4.14a6.78,6.78,0,0,0-1.85-4.86C661.45,343.71,656.55,340.94,654,340.94Z" style="fill:#263238"></path><rect x="660.81" y="342.42" width="0.5" height="9.57" transform="translate(-18.91 655.74) rotate(-52.12)" style="fill:#263238"></rect><rect x="664.93" y="315.3" width="2" height="9.18" transform="translate(-57.2 471.14) rotate(-37.47)" style="fill:#263238"></rect><path d="M664.84,318.43a7.15,7.15,0,0,0-2-5.58c-1.46-1.61-9.57-6.06-10.68-3.16C651,312.85,659,320.13,664.84,318.43Z" style="fill:#5050D2"></path><path d="M663,319.18c-3.35,0-7-2.11-9.32-4.6-1.75-1.91-2.47-3.76-2-5.07a1.94,1.94,0,0,1,1.57-1.22c2.84-.54,8.66,2.79,10,4.22a7.6,7.6,0,0,1,2.07,6l-.05.31-.3.08A6.75,6.75,0,0,1,663,319.18Zm-9-9.95a2.71,2.71,0,0,0-.51,0,1,1,0,0,0-.82.6c-.35.91.33,2.46,1.78,4,2.46,2.67,6.6,4.89,9.92,4.14a6.8,6.8,0,0,0-1.85-4.86C661.45,312,656.55,309.23,654,309.23Z" style="fill:#263238"></path><rect x="660.81" y="310.71" width="0.5" height="9.57" transform="translate(6.09 643.45) rotate(-52.11)" style="fill:#263238"></rect><rect x="664.93" y="278.07" width="2" height="9.18" transform="translate(-34.54 463.51) rotate(-37.48)" style="fill:#263238"></rect><path d="M664.84,281.2a7.15,7.15,0,0,0-2-5.58c-1.46-1.61-9.57-6.06-10.68-3.16C651,275.62,659,282.9,664.84,281.2Z" style="fill:#5050D2"></path><path d="M663,282c-3.35,0-7-2.11-9.32-4.6-1.75-1.91-2.47-3.76-2-5.07a2,2,0,0,1,1.57-1.22c2.84-.54,8.66,2.8,10,4.22a7.6,7.6,0,0,1,2.07,6l-.05.31-.3.09A7.11,7.11,0,0,1,663,282ZM654,272a2.71,2.71,0,0,0-.51,0,1,1,0,0,0-.82.6c-.35.91.33,2.46,1.78,4,2.46,2.67,6.6,4.9,9.92,4.14a6.8,6.8,0,0,0-1.85-4.86C661.45,274.77,656.55,272,654,272Z" style="fill:#263238"></path><rect x="660.81" y="273.48" width="0.5" height="9.57" transform="translate(35.47 629.09) rotate(-52.11)" style="fill:#263238"></rect><rect x="664.93" y="253.29" width="2" height="9.18" transform="translate(-19.47 458.35) rotate(-37.47)" style="fill:#263238"></rect><path d="M664.84,256.42a7.15,7.15,0,0,0-2-5.58c-1.46-1.61-9.57-6.07-10.68-3.16C651,250.84,659,258.12,664.84,256.42Z" style="fill:#5050D2"></path><path d="M663,257.17c-3.35,0-7-2.12-9.32-4.6-1.75-1.92-2.47-3.76-2-5.07a1.94,1.94,0,0,1,1.57-1.22c2.86-.54,8.66,2.79,10,4.22a7.59,7.59,0,0,1,2.07,6l-.05.31-.3.09A7.12,7.12,0,0,1,663,257.17Zm-9-10a2.67,2.67,0,0,0-.5,0,1,1,0,0,0-.82.6c-.35.91.33,2.45,1.78,4,2.46,2.67,6.6,4.89,9.92,4.14a6.78,6.78,0,0,0-1.85-4.86C661.45,250,656.55,247.22,654,247.22Z" style="fill:#263238"></path><rect x="660.81" y="248.7" width="0.5" height="9.57" transform="translate(55.05 619.55) rotate(-52.11)" style="fill:#263238"></rect><rect x="664.93" y="228.4" width="2" height="9.18" transform="translate(-4.32 453.23) rotate(-37.47)" style="fill:#263238"></rect><path d="M664.84,231.53a7.18,7.18,0,0,0-2-5.59c-1.46-1.6-9.57-6.06-10.68-3.15C651,225.94,659,233.23,664.84,231.53Z" style="fill:#5050D2"></path><path d="M663,232.28c-3.35,0-7-2.12-9.32-4.61-1.75-1.91-2.47-3.75-2-5.06a2,2,0,0,1,1.57-1.23c2.84-.53,8.66,2.8,10,4.23a7.58,7.58,0,0,1,2.07,6l-.05.31-.3.09A7.12,7.12,0,0,1,663,232.28Zm-9-10a2.67,2.67,0,0,0-.51.05.94.94,0,0,0-.82.6c-.35.91.33,2.45,1.78,4,2.46,2.67,6.6,4.89,9.92,4.13a6.77,6.77,0,0,0-1.85-4.85C661.45,225.1,656.55,222.32,654,222.32Z" style="fill:#263238"></path><rect x="660.81" y="223.81" width="0.5" height="9.57" transform="translate(74.71 609.97) rotate(-52.12)" style="fill:#263238"></rect><rect x="666.8" y="360.28" width="9.18" height="2" transform="translate(-23.75 674.45) rotate(-52.54)" style="fill:#263238"></rect><path d="M672.48,359.83a7.17,7.17,0,0,1,1.95-5.59c1.46-1.61,9.57-6.06,10.68-3.16C686.33,354.24,678.31,361.53,672.48,359.83Z" style="fill:#5050D2"></path><path d="M674.29,360.57a7.11,7.11,0,0,1-1.95-.26l-.3-.09,0-.31a7.64,7.64,0,0,1,2.07-6c1.29-1.42,7.11-4.75,10-4.22a1.94,1.94,0,0,1,1.57,1.22c.5,1.31-.21,3.16-2,5.07C681.32,358.46,677.64,360.57,674.29,360.57ZM673,359.43c3.32.75,7.46-1.47,9.92-4.14,1.45-1.57,2.13-3.12,1.78-4a1,1,0,0,0-.82-.6c-2.36-.45-7.88,2.65-9,3.92A6.77,6.77,0,0,0,673,359.43Z" style="fill:#263238"></path><polygon points="672.64 360.02 672.33 359.63 680.33 353.44 680.63 353.83 672.64 360.02" style="fill:#263238"></polygon><rect x="666.8" y="309.85" width="9.18" height="2" transform="translate(16.28 654.69) rotate(-52.54)" style="fill:#263238"></rect><path d="M672.48,309.39a7.15,7.15,0,0,1,1.95-5.58c1.46-1.61,9.57-6.06,10.68-3.16C686.33,303.81,678.31,311.09,672.48,309.39Z" style="fill:#5050D2"></path><path d="M674.29,310.14a6.75,6.75,0,0,1-1.95-.27l-.3-.08,0-.31a7.64,7.64,0,0,1,2.07-6c1.29-1.42,7.1-4.75,10-4.22a1.92,1.92,0,0,1,1.57,1.22c.5,1.31-.22,3.16-2,5.07C681.32,308,677.64,310.14,674.29,310.14ZM673,309c3.32.75,7.46-1.47,9.92-4.14,1.45-1.57,2.13-3.12,1.78-4a1,1,0,0,0-.82-.6c-2.35-.43-7.88,2.65-9,3.91A6.79,6.79,0,0,0,673,309Z" style="fill:#263238"></path><polygon points="672.64 309.59 672.33 309.2 680.33 303.01 680.63 303.4 672.64 309.59" style="fill:#263238"></polygon><rect x="666.8" y="284.96" width="9.18" height="2" transform="translate(36.04 644.94) rotate(-52.54)" style="fill:#263238"></rect><path d="M672.48,284.5a7.15,7.15,0,0,1,1.95-5.58c1.46-1.61,9.57-6.06,10.68-3.16C686.33,278.92,678.31,286.2,672.48,284.5Z" style="fill:#5050D2"></path><path d="M674.29,285.25a6.75,6.75,0,0,1-1.95-.27l-.3-.09,0-.31a7.63,7.63,0,0,1,2.07-6c1.29-1.43,7.11-4.76,10-4.22a1.92,1.92,0,0,1,1.57,1.22c.5,1.31-.21,3.15-2,5.06C681.32,283.13,677.64,285.25,674.29,285.25ZM673,284.11c3.32.75,7.46-1.47,9.92-4.14,1.45-1.58,2.13-3.12,1.78-4a1,1,0,0,0-.82-.6c-2.36-.45-7.88,2.64-9,3.91A6.78,6.78,0,0,0,673,284.11Z" style="fill:#263238"></path><polygon points="672.64 284.7 672.33 284.31 680.33 278.11 680.63 278.51 672.64 284.7" style="fill:#263238"></polygon><rect x="666.8" y="252.06" width="9.18" height="2" transform="translate(62.15 632.05) rotate(-52.54)" style="fill:#263238"></rect><path d="M672.48,251.6a7.15,7.15,0,0,1,1.95-5.58c1.46-1.61,9.57-6.06,10.68-3.16C686.33,246,678.31,253.3,672.48,251.6Z" style="fill:#5050D2"></path><path d="M674.29,252.35a6.75,6.75,0,0,1-1.95-.27L672,252l0-.31a7.63,7.63,0,0,1,2.07-6c1.29-1.43,7.11-4.76,10-4.22a1.92,1.92,0,0,1,1.57,1.22c.5,1.31-.21,3.15-2,5.07C681.32,250.23,677.64,252.35,674.29,252.35ZM673,251.21c3.32.75,7.46-1.47,9.92-4.14,1.45-1.57,2.13-3.12,1.78-4a1,1,0,0,0-.82-.6c-2.36-.44-7.88,2.64-9,3.91A6.78,6.78,0,0,0,673,251.21Z" style="fill:#263238"></path><rect x="671.43" y="248.26" width="10.11" height="0.5" transform="translate(-10.14 467.43) rotate(-37.86)" style="fill:#263238"></rect><rect x="666.8" y="226.19" width="9.18" height="2" transform="translate(82.68 621.92) rotate(-52.54)" style="fill:#263238"></rect><path d="M672.48,225.74a7.17,7.17,0,0,1,1.95-5.59c1.46-1.61,9.57-6.06,10.68-3.16C686.33,220.15,678.31,227.44,672.48,225.74Z" style="fill:#5050D2"></path><path d="M674.29,226.48a7.11,7.11,0,0,1-1.95-.26l-.3-.09,0-.31a7.64,7.64,0,0,1,2.07-6c1.29-1.42,7.11-4.75,10-4.22a1.94,1.94,0,0,1,1.57,1.22c.5,1.31-.21,3.16-2,5.07C681.32,224.37,677.64,226.48,674.29,226.48ZM673,225.34c3.32.76,7.46-1.46,9.92-4.14,1.45-1.57,2.13-3.11,1.78-4a1,1,0,0,0-.82-.6c-2.36-.44-7.88,2.65-9,3.92A6.77,6.77,0,0,0,673,225.34Z" style="fill:#263238"></path><rect x="671.43" y="222.39" width="10.11" height="0.5" transform="translate(5.44 461.19) rotate(-37.79)" style="fill:#263238"></rect><path d="M668.26,214.27a7.17,7.17,0,0,1,2-5.59c1.46-1.61,9.57-6.06,10.68-3.16C682.11,208.68,674.09,216,668.26,214.27Z" style="fill:#5050D2"></path><path d="M670.07,215a7.11,7.11,0,0,1-2-.26l-.3-.09-.05-.31a7.6,7.6,0,0,1,2.07-6c1.29-1.42,7.11-4.76,9.95-4.22a2,2,0,0,1,1.57,1.22c.5,1.31-.22,3.16-2,5.07C677.1,212.9,673.42,215,670.07,215Zm-1.34-1.14c3.32.76,7.46-1.47,9.92-4.14,1.45-1.57,2.13-3.12,1.78-4a1,1,0,0,0-.82-.6c-2.35-.44-7.88,2.65-9,3.92A6.77,6.77,0,0,0,668.73,213.87Z" style="fill:#263238"></path><rect x="667.21" y="210.92" width="10.11" height="0.5" transform="translate(11.59 456.19) rotate(-37.79)" style="fill:#263238"></rect><path d="M668.65,214.61a7.13,7.13,0,0,1-5.35-2.52c-1.44-1.62-5-10.15-2-11C664.55,200.26,671,209,668.65,214.61Z" style="fill:#5050D2"></path><path d="M668.53,215.11a7.7,7.7,0,0,1-5.6-2.69c-1.28-1.43-4-7.56-3.16-10.34a2,2,0,0,1,1.38-1.43c1.36-.37,3.12.54,4.83,2.49,2.69,3.05,4.62,8,3.14,11.66l-.12.29-.32,0Zm-6.76-13.54a1.36,1.36,0,0,0-.36.05c-.21,0-.51.19-.68.75-.68,2.29,1.81,8.11,2.94,9.39a6.79,6.79,0,0,0,4.64,2.35c1.1-3.23-.68-7.58-3.08-10.31C664,202.39,662.7,201.57,661.77,201.57Z" style="fill:#263238"></path><polygon points="668.44 214.74 663.12 206.14 663.55 205.88 668.87 214.48 668.44 214.74" style="fill:#263238"></polygon><polygon points="675.53 401.9 657.66 401.9 655.43 379.25 677.76 379.25 675.53 401.9" style="fill:#263238"></polygon><path d="M676,402.4H657.21l-2.34-23.65h23.44Zm-17.87-1h17l2.13-21.65H656Z" style="fill:#263238"></path></g><g id="freepik--Books--inject-29"><path d="M145.48,384.12H88.31v17.27h57.17a8.63,8.63,0,0,0,8.63-8.63h0A8.64,8.64,0,0,0,145.48,384.12Z" style="fill:#fff"></path><path d="M145.48,401.89H88.31a.5.5,0,0,1-.5-.5V384.12a.51.51,0,0,1,.5-.5h57.17a9.14,9.14,0,0,1,0,18.27Zm-56.67-1h56.67a8.14,8.14,0,0,0,0-16.27H88.81Z" style="fill:#263238"></path><path d="M145.48,402.39H86.18a1,1,0,0,1,0-2h59.3a7.64,7.64,0,0,0,0-15.27H86.18a1,1,0,0,1,0-2h59.3a9.64,9.64,0,0,1,0,19.27Z" style="fill:#263238"></path><path d="M149.69,400.77a.5.5,0,0,1-.5-.5V385.88a.51.51,0,0,1,.5-.5.5.5,0,0,1,.5.5v14.39A.5.5,0,0,1,149.69,400.77Z" style="fill:#263238"></path><path d="M149.84,389.14H140a.5.5,0,0,1-.5-.5.5.5,0,0,1,.5-.5h9.88a.51.51,0,0,1,.5.5A.5.5,0,0,1,149.84,389.14Z" style="fill:#263238"></path><path d="M149.4,392.92h-4.21a.5.5,0,0,1-.5-.5.5.5,0,0,1,.5-.5h4.21a.5.5,0,0,1,.5.5A.5.5,0,0,1,149.4,392.92Z" style="fill:#263238"></path><path d="M149.69,397.43h-12.5a.51.51,0,0,1-.5-.5.5.5,0,0,1,.5-.5h12.5a.5.5,0,0,1,.5.5A.5.5,0,0,1,149.69,397.43Z" style="fill:#263238"></path><path d="M91.56,394.09h-3.2a.51.51,0,0,1-.5-.5.5.5,0,0,1,.5-.5h3.2a.5.5,0,0,1,.5.5A.5.5,0,0,1,91.56,394.09Z" style="fill:#263238"></path><path d="M108.56,391.76H91.71a.5.5,0,1,1,0-1h16.85a.5.5,0,0,1,0,1Z" style="fill:#263238"></path><path d="M95.92,397H92.43a.5.5,0,0,1-.5-.5.51.51,0,0,1,.5-.5h3.49a.5.5,0,0,1,.5.5A.5.5,0,0,1,95.92,397Z" style="fill:#263238"></path><path d="M93.71,365.81h57.17v17.27H93.71a8.63,8.63,0,0,1-8.63-8.63h0A8.63,8.63,0,0,1,93.71,365.81Z" style="fill:#fff"></path><path d="M150.88,383.58H93.71a9.14,9.14,0,0,1,0-18.27h57.17a.51.51,0,0,1,.5.5v17.27A.5.5,0,0,1,150.88,383.58ZM93.71,366.31a8.14,8.14,0,0,0,0,16.27h56.67V366.31Z" style="fill:#263238"></path><path d="M153,384.08H93.71a9.64,9.64,0,0,1,0-19.27H153a1,1,0,0,1,0,2H93.71a7.64,7.64,0,0,0,0,15.27H153a1,1,0,0,1,0,2Z" style="fill:#263238"></path><path d="M89.5,382.46a.5.5,0,0,1-.5-.5V367.57a.5.5,0,0,1,.5-.5.51.51,0,0,1,.5.5V382A.5.5,0,0,1,89.5,382.46Z" style="fill:#263238"></path><path d="M99.23,370.83H89.35a.5.5,0,0,1-.5-.5.5.5,0,0,1,.5-.5h9.88a.5.5,0,0,1,.5.5A.5.5,0,0,1,99.23,370.83Z" style="fill:#263238"></path><path d="M94,374.61H89.79a.5.5,0,0,1,0-1H94a.5.5,0,0,1,0,1Z" style="fill:#263238"></path><path d="M102,379.12H89.5a.5.5,0,0,1-.5-.5.5.5,0,0,1,.5-.5H102a.5.5,0,0,1,.5.5A.5.5,0,0,1,102,379.12Z" style="fill:#263238"></path><path d="M150.82,375.77h-3.19a.5.5,0,0,1-.5-.5.5.5,0,0,1,.5-.5h3.19a.5.5,0,0,1,.5.5A.5.5,0,0,1,150.82,375.77Z" style="fill:#263238"></path><path d="M147.48,373.45H130.62a.5.5,0,0,1,0-1h16.86a.5.5,0,0,1,0,1Z" style="fill:#263238"></path><path d="M146.76,378.68h-3.49a.5.5,0,0,1,0-1h3.49a.5.5,0,1,1,0,1Z" style="fill:#263238"></path></g><g id="freepik--character-2--inject-29"><path d="M398.37,340.53l-5.13,61h106.9s-3.32-45.9-13.28-68.25Z" style="fill:#263238"></path><path d="M500.14,402H393.24a.51.51,0,0,1-.37-.16.52.52,0,0,1-.13-.38l5.13-61a.5.5,0,0,1,.46-.46l88.49-7.25a.49.49,0,0,1,.49.3c9.89,22.17,13.3,68,13.33,68.42a.47.47,0,0,1-.13.37A.51.51,0,0,1,500.14,402Zm-106.36-1H499.6c-.41-5.18-3.93-46.4-13.06-67.22L398.83,341Z" style="fill:#263238"></path><path d="M426.47,210.07l-1.9,7.17-25.93,13.91S369.55,310,369.76,312.32s8.64,8,11.81,7.8,3.58-.43,6.53-3,14.13-18.34,14.13-18.34L396.75,345l16.44,25.3,8.43-16.65,6.12,17.7s32-13.91,45.53-20.23,18.34-11.6,18.34-11.6l-10.33-43,8.65-32.88s24,20,27.19,20.45a14.42,14.42,0,0,0,11-3.38c3.37-2.95,6.32-18.76,2.95-23.19s-32-37.73-34.37-39.84-5.69-5.91-8.64-6.12-23-1.68-24.88-1.89-4.63-.43-4.63-.43l-4.43-6.53Z" style="fill:#bdbdbd"></path><path d="M427.74,371.84a.52.52,0,0,1-.21,0,.51.51,0,0,1-.27-.29l-5.73-16.59-7.89,15.6a.51.51,0,0,1-.42.27.48.48,0,0,1-.45-.23l-16.44-25.3a.47.47,0,0,1-.08-.33l5.25-44.22c-2.93,4.1-10.64,14.75-13.07,16.83-3.06,2.63-3.57,2.86-6.83,3.07s-12.1-5.64-12.34-8.25c-.21-2.36,25.93-73.3,28.91-81.38a.53.53,0,0,1,.24-.27l25.74-13.81,1.84-7a.51.51,0,0,1,.35-.36L454,202.21a.48.48,0,0,1,.54.2l4.3,6.33c.71.06,2.85.24,4.41.41,1.88.21,22,1.69,24.86,1.89,2.61.19,5.4,2.87,7.64,5l1.3,1.23c2.2,2,30.83,35.19,34.43,39.91s.4,20.87-3,23.87a14.82,14.82,0,0,1-11.36,3.49c-3-.4-22.56-16.5-26.85-20.06l-8.41,32,10.3,42.88a.51.51,0,0,1-.12.46c-.2.22-5.07,5.41-18.49,11.71s-45.23,20.1-45.55,20.24A.51.51,0,0,1,427.74,371.84Zm-6.12-18.7h0a.47.47,0,0,1,.43.33l5.94,17.2c4.11-1.79,32.61-14.2,45-20,11.82-5.54,17-10.31,18-11.29L480.8,296.62a.49.49,0,0,1,0-.24l8.64-32.89a.51.51,0,0,1,.81-.26c9.61,8,24.72,20,26.94,20.34a14,14,0,0,0,10.57-3.25c3.07-2.69,6.14-18.23,2.88-22.52-3.58-4.7-32.11-37.78-34.3-39.77-.41-.37-.85-.8-1.32-1.25-2.12-2-4.77-4.58-7-4.74-2.93-.21-23-1.68-24.9-1.9s-4.59-.42-4.62-.42a.5.5,0,0,1-.38-.22l-4.23-6.24-27,7.22-1.82,6.88a.54.54,0,0,1-.25.32L399.05,231.5c-11.58,31.37-28.75,78.64-28.79,80.79.17,1.88,8.24,7.55,11.27,7.33s3.36-.36,6.25-2.84,13.93-18.09,14-18.25a.5.5,0,0,1,.59-.17.48.48,0,0,1,.31.52l-5.46,46,15.88,24.42,8-15.88A.48.48,0,0,1,421.62,353.14Zm2.95-135.9h0Z" style="fill:#263238"></path><path d="M425.21,202.27l1.26,7.8,7.59,7.59-1.9,5.48s3.12,15.4,4,13.5,8.48-14.77,8.48-14.77l-3.16-5.9,12.65-13.28-5.48-19.4Z" style="fill:#fff"></path><path d="M436,237.3h-.07c-.38,0-1.39-.15-4.21-14.06a.62.62,0,0,1,0-.27l1.8-5.18-7.37-7.37a.42.42,0,0,1-.14-.27l-1.27-7.8a.49.49,0,0,1,.18-.47l23.4-19a.52.52,0,0,1,.47-.08.51.51,0,0,1,.33.34l5.48,19.39a.49.49,0,0,1-.12.48l-12.4,13,3,5.59a.48.48,0,0,1,0,.49c-.07.13-7.63,12.87-8.45,14.71A.67.67,0,0,1,436,237.3Zm-3.27-14.13c1.09,5.35,2.49,11.11,3.23,12.77,1.43-2.77,7.11-12.37,8.12-14.08l-3-5.65a.5.5,0,0,1,.08-.58l12.45-13.08-5.2-18.39-22.58,18.31,1.19,7.36,7.47,7.47a.48.48,0,0,1,.12.52Z" style="fill:#263238"></path><polygon points="430.07 213.66 439.75 196.01 425.21 202.27 426.47 210.07 430.07 213.66" style="fill:#263238"></polygon><path d="M430.07,214.17a.51.51,0,0,1-.35-.15l-3.6-3.6a.42.42,0,0,1-.14-.27l-1.27-7.8a.51.51,0,0,1,.3-.54l14.54-6.26a.49.49,0,0,1,.63.7l-9.67,17.66a.51.51,0,0,1-.37.25Zm-3.13-4.34,3,3,8.66-15.8-12.85,5.53Z" style="fill:#263238"></path><polygon points="491.94 264.49 471.65 260.83 471.83 259.85 487.92 262.75 476.72 254.41 477.31 253.61 491.94 264.49" style="fill:#263238"></polygon><path d="M470.63,291.33l-.58-.81a20.59,20.59,0,0,0,4-4.41l.81.6A21.55,21.55,0,0,1,470.63,291.33Z" style="fill:#263238"></path><path d="M477.58,282.75l-.84-.54a190.19,190.19,0,0,0,9.32-17.16l.9.42A184.47,184.47,0,0,1,477.58,282.75Z" style="fill:#263238"></path><path d="M467.85,290.07l-.65-.75c2.54-2.21,6.88-9.82,6.92-9.89l.87.49C474.81,280.24,470.52,287.76,467.85,290.07Z" style="fill:#263238"></path><path d="M428.57,263.42l-.16,0a.5.5,0,0,1-.31-.63c1.77-5.33,4.18-22.39,4.2-22.56a.5.5,0,1,1,1,.13c-.09.71-2.44,17.33-4.24,22.74A.51.51,0,0,1,428.57,263.42Z" style="fill:#263238"></path><path d="M421,349.79a.5.5,0,0,1-.49-.44c-.61-4.37,4.9-42,5.13-43.62a.5.5,0,1,1,1,.14c-.06.39-5.72,39.12-5.13,43.35a.51.51,0,0,1-.43.56Z" style="fill:#263238"></path><path d="M433.4,270.66h-.09a.5.5,0,0,1-.4-.58l2.1-11.14a.5.5,0,1,1,1,.18l-2.1,11.15A.49.49,0,0,1,433.4,270.66Z" style="fill:#263238"></path><path d="M436.4,254.74h-.09a.49.49,0,0,1-.4-.58l2.74-14.58a.5.5,0,0,1,.58-.4.49.49,0,0,1,.4.58l-2.74,14.58A.51.51,0,0,1,436.4,254.74Z" style="fill:#263238"></path><path d="M425.85,350.69h-.05a.5.5,0,0,1-.44-.55l.61-6.21a.5.5,0,0,1,.54-.45.5.5,0,0,1,.45.55l-.61,6.21A.49.49,0,0,1,425.85,350.69Z" style="fill:#263238"></path><path d="M427,339.07H427a.5.5,0,0,1-.45-.55l3.69-37.6a.49.49,0,0,1,.54-.45.5.5,0,0,1,.45.55l-3.69,37.6A.5.5,0,0,1,427,339.07Z" style="fill:#263238"></path><path d="M486,223h-.08c-1.37-.22-3-.39-4.78-.52a.5.5,0,1,1,.08-1c1.82.13,3.46.31,4.86.53a.5.5,0,0,1,.41.58A.5.5,0,0,1,486,223Z" style="fill:#263238"></path><path d="M453,223a.5.5,0,0,1,0-1,243.45,243.45,0,0,1,24.54-.72.5.5,0,0,1,.48.52.48.48,0,0,1-.52.48,240.91,240.91,0,0,0-24.41.72Z" style="fill:#263238"></path><path d="M406.83,233.52a.52.52,0,0,1-.43-.24.51.51,0,0,1,.16-.69c.58-.36,1.82-1,3.78-2a.5.5,0,1,1,.46.89c-1.91,1-3.16,1.66-3.71,2A.5.5,0,0,1,406.83,233.52Z" style="fill:#263238"></path><path d="M413.82,229.84a.5.5,0,0,1-.45-.28.51.51,0,0,1,.22-.67c4.59-2.31,9.63-4.78,9.63-4.78a.5.5,0,1,1,.44.9s-5,2.46-9.62,4.77A.43.43,0,0,1,413.82,229.84Z" style="fill:#263238"></path><path d="M398.64,159.89l-11-.63s-10.33-6.75-10.12-9.07,16-29.51,24-35,23-4.64,34.37-4.43,27.4,19.61,30.36,25.3,9.48,20.45,8.22,23.61S461.68,174,461.68,174l4.21-.85s.85,3.8-3.58,8.86-17.5,7.17-18.55,7.38,2.32-16.87,2.11-20.45-15.81-13.71-23.4-14.34S398.64,159.89,398.64,159.89Z" style="fill:#263238"></path><path d="M443.77,189.91a.74.74,0,0,1-.44-.16c-.5-.48-.37-2.13.84-10.38a84.94,84.94,0,0,0,1.2-10.38c-.2-3.26-15.71-13.27-22.95-13.87-7.39-.61-23.44,5.18-23.61,5.24a.34.34,0,0,1-.2,0l-11-.63a.49.49,0,0,1-.24-.08c-1.77-1.16-10.57-7-10.35-9.53.25-2.67,16.42-30,24.25-35.36,7.49-5.13,21-4.82,31.79-4.58l2.87.06c11.42.21,27.53,19.29,30.79,25.57,1.66,3.2,9.76,20.23,8.24,24-1.05,2.63-8.73,10.34-11.76,13.33l2.56-.52a.5.5,0,0,1,.58.39c0,.16.85,4.1-3.69,9.29-3.72,4.24-13.2,6.51-18.52,7.48l-.31.06Zm-.1-1h0Zm-22.43-34.85c.44,0,.87,0,1.27.05,7.34.62,23.61,10.72,23.86,14.81a86.67,86.67,0,0,1-1.21,10.59,89.64,89.64,0,0,0-1.11,9.32c8.93-1.63,15.28-4.17,17.88-7.14,3.31-3.78,3.57-6.79,3.53-7.93l-3.68.74a.52.52,0,0,1-.55-.26.5.5,0,0,1,.1-.59c4-3.84,11.78-11.74,12.74-14.16,1.1-2.74-4.75-16.56-8.2-23.2-3.09-6-19.07-24.83-29.92-25l-2.87-.06c-10.69-.24-24-.54-31.2,4.4-8.19,5.6-23.65,32.7-23.82,34.63-.12,1.25,4.86,5.3,9.78,8.53l10.73.62C400,158.88,413.52,154.07,421.24,154.07Z" style="fill:#263238"></path><path d="M452.84,149.38c-3.09-.28-5,7.57-5,7.57l-2.24-3.64a80.75,80.75,0,0,1-10.1-.87l3.89,2.81a10.31,10.31,0,0,1-5.42,1.69c-3.05,0-14.24-7.45-14.24-7.45l6.44,5.76a104.58,104.58,0,0,0-10.84-1c-6.78-.37-13.12-14.18-13.83-15.77-.9,3.28-2.44,9.37-2.44,12.72a15.92,15.92,0,0,0,2.71,8.47,43.92,43.92,0,0,1-6.19-2.11c1.75,6.19,5.31,17.19,6.56,21.56,1.68,5.89,18,24.67,19.35,25.79s8.13,1.69,13.17-1.4,14.86-16,15.42-19.06,2-13.74,2-13.74a11.34,11.34,0,0,0,5.6-7C459.29,158.35,455.92,149.66,452.84,149.38Z" style="fill:#fff"></path><path d="M425.86,206.29c-2.2,0-4-.4-4.74-1-1.32-1.05-17.79-20-19.51-26-.55-2-1.59-5.27-2.68-8.79-1.37-4.38-2.91-9.34-3.88-12.78a.48.48,0,0,1,.15-.51.49.49,0,0,1,.53-.08,40.62,40.62,0,0,0,4.89,1.75,16.15,16.15,0,0,1-2.11-7.65c0-3.4,1.54-9.51,2.46-12.86a.48.48,0,0,1,.44-.36.51.51,0,0,1,.5.29c.69,1.55,6.92,15.13,13.39,15.48,4.41.24,7.52.57,9.26.79l-5.21-4.66a.5.5,0,0,1-.06-.68.49.49,0,0,1,.67-.11c3.08,2.05,11.58,7.37,14,7.37a9.62,9.62,0,0,0,4.52-1.23l-3.28-2.36a.5.5,0,0,1-.17-.6.49.49,0,0,1,.53-.3,81.48,81.48,0,0,0,10,.86.5.5,0,0,1,.42.23l1.65,2.68c.7-2.3,2.5-7.09,5.26-6.84h0c1,.1,2.07.9,3,2.34,2.06,3.08,3.43,8.65,2.18,12.61a12.07,12.07,0,0,1-5.62,7.19c-.22,1.67-1.43,10.71-1.93,13.5-.63,3.42-10.72,16.38-15.65,19.4A17.87,17.87,0,0,1,425.86,206.29ZM396.3,158.41c1,3.34,2.35,7.78,3.58,11.74,1.1,3.53,2.13,6.86,2.69,8.81,1.68,5.87,17.88,24.5,19.18,25.54,1.14.92,7.65,1.6,12.6-1.44S449,187.2,449.54,184.34c.55-3,1.95-13.61,2-13.72a.5.5,0,0,1,.3-.39,11,11,0,0,0,5.33-6.7c1.14-3.63-.18-8.93-2.06-11.76-.77-1.16-1.58-1.83-2.28-1.89-2.19-.19-4,5.26-4.51,7.19a.5.5,0,0,1-.91.14l-2.1-3.41a77.32,77.32,0,0,1-7.92-.6l2.28,1.64a.52.52,0,0,1,.21.41.49.49,0,0,1-.21.4,10.65,10.65,0,0,1-5.71,1.79c-1.81,0-6-2.27-9.44-4.33l2,1.77a.49.49,0,0,1,.11.58.48.48,0,0,1-.53.28,104.24,104.24,0,0,0-10.79-1c-6.14-.33-11.69-10.66-13.68-14.81-.89,3.4-2.06,8.38-2.06,11.26a15.49,15.49,0,0,0,2.62,8.18.51.51,0,0,1,0,.57.51.51,0,0,1-.54.21A46.47,46.47,0,0,1,396.3,158.41Z" style="fill:#263238"></path><path d="M421.25,183.55a9.46,9.46,0,0,1-4.37-1.56.51.51,0,0,1-.14-.7.49.49,0,0,1,.69-.13s2.54,1.66,4.27,1.35a.5.5,0,1,1,.18,1A3.28,3.28,0,0,1,421.25,183.55Z" style="fill:#263238"></path><path d="M423.42,190.37a20.89,20.89,0,0,1-7.36-1.74.5.5,0,0,1,.41-.91s5.41,2.41,8.93,1.4,7-4.32,8.63-7.09a.5.5,0,0,1,.69-.17.49.49,0,0,1,.17.68c-1.77,3-5.5,6.48-9.21,7.54A8.39,8.39,0,0,1,423.42,190.37Z" style="fill:#263238"></path><path d="M426,193c-2.23,0-4.31-2.19-4.41-2.29a.51.51,0,0,1,.34-.85,17.21,17.21,0,0,0,7.6-2.59.5.5,0,0,1,.77.49c0,.16-.61,4-3.17,5A3,3,0,0,1,426,193Zm-2.86-2.24c.89.7,2.36,1.59,3.63,1.1s2-2.06,2.28-3.15A18.24,18.24,0,0,1,423.16,190.71Z" style="fill:#263238"></path><path d="M412.52,170.15c.54,1.43.34,2.83-.44,3.12s-1.86-.62-2.4-2.05-.33-2.83.45-3.12S412,168.72,412.52,170.15Z" style="fill:#263238"></path><path d="M427.32,167.83c.54,1.43.34,2.83-.44,3.13s-1.86-.63-2.39-2.06-.34-2.83.44-3.12S426.79,166.4,427.32,167.83Z" style="fill:#263238"></path><path d="M403.6,165.66a.51.51,0,0,1-.39-.83,11.55,11.55,0,0,1,8.24-3.74.5.5,0,0,1,0,1,10.72,10.72,0,0,0-7.47,3.39A.49.49,0,0,1,403.6,165.66Z" style="fill:#263238"></path><path d="M431.61,160.84a.54.54,0,0,1-.25-.06,10,10,0,0,0-10,0,.5.5,0,1,1-.56-.84,10.87,10.87,0,0,1,11.05,0,.51.51,0,0,1,.19.69A.5.5,0,0,1,431.61,160.84Z" style="fill:#263238"></path><path d="M380,279.67,381,291.45s-10.9,13.71-12.13,15.82-.35,8.79,2.11,11.6,9.49,4.05,12,3.52,5.45-8.09,5.63-9.14,3-19.16,3-19.16l-10.2-16.17Z" style="fill:#fff"></path><path d="M381.6,323c-3.23,0-8.79-1.32-11-3.8-2.58-2.95-3.5-9.88-2.16-12.18,1.17-2,10.77-14.12,12-15.72l-1-11.58a.47.47,0,0,1,.1-.36L381,277.6a.49.49,0,0,1,.42-.18.48.48,0,0,1,.39.23L392,293.82a.52.52,0,0,1,.07.35c-.12.73-2.82,18.12-3,19.16-.13.78-3.12,8.93-6,9.55A7.75,7.75,0,0,1,381.6,323Zm-1.1-43.17,1,11.58a.51.51,0,0,1-.11.35c-.11.14-10.89,13.71-12.09,15.76-1,1.81-.34,8.29,2.06,11s9.11,3.87,11.47,3.36c2.09-.45,5-7.58,5.23-8.73.17-1,2.66-17.06,3-19l-9.72-15.42Z" style="fill:#263238"></path><polygon points="371.9 262.45 401.61 311.67 442.74 292.33 414.08 246.45 371.9 262.45" style="fill:#5050D2"></polygon><path d="M401.61,312.17a.5.5,0,0,1-.43-.25l-29.71-49.21a.54.54,0,0,1-.05-.43.5.5,0,0,1,.3-.3l42.19-16a.5.5,0,0,1,.6.21l28.65,45.88a.47.47,0,0,1,.06.4.49.49,0,0,1-.27.31l-41.13,19.34A.54.54,0,0,1,401.61,312.17Zm-29-49.47L401.8,311,442,292.12l-28.14-45.06Z" style="fill:#263238"></path><rect x="392.84" y="277.86" width="27.69" height="1" transform="translate(-75.23 175.22) rotate(-22.31)" style="fill:#263238"></rect><rect x="404.13" y="286.4" width="13.64" height="1" transform="translate(-80.07 186.46) rotate(-23.36)" style="fill:#263238"></rect><path d="M386.37,276l-4.44-6.89.86-.33,4,6.21,1.58-.6.44.69Z" style="fill:#263238"></path><path d="M389.45,274.82,385,267.93l.84-.32,4.45,6.89Z" style="fill:#263238"></path><path d="M392,273.87l-4-6.18-1,.4-.46-.72,2.92-1.1.46.72-1,.38,4,6.18Z" style="fill:#263238"></path><path d="M394.44,272.94,390,266.05l2.39-.9.47.71-1.54.58,1.48,2.28,1.24-.47.44.68-1.25.47,1.64,2.53,1.54-.59.45.69Z" style="fill:#263238"></path><path d="M397.54,271.77l-4.45-6.89,1.25-.47a2.86,2.86,0,0,1,1.14-.2,1.81,1.81,0,0,1,1,.36,3.48,3.48,0,0,1,.88,1,3.86,3.86,0,0,1,.39.75,1.61,1.61,0,0,1,.12.65.78.78,0,0,1-.23.49l3.1,3.12-.83.32L397,268l-.67.25,2.08,3.23Zm-1.67-4.25.33-.12a1.27,1.27,0,0,0,.53-.33.54.54,0,0,0,.11-.47,3,3,0,0,0-1.1-1.53,1.15,1.15,0,0,0-1,0l-.38.14Z" style="fill:#263238"></path><path d="M401.16,270.4,398,263l.83-.31,5.76,6.39-.81.31-1.4-1.63-1.26.47.82,1.85Zm-.34-2.88,1-.39-2.53-2.91Z" style="fill:#263238"></path><path d="M405.68,268.7l-4-6.18-1.05.4-.46-.72,2.92-1.1.46.72-1,.38,4,6.18Z" style="fill:#263238"></path><path d="M409.8,267.25a2,2,0,0,1-1.23.09,2.36,2.36,0,0,1-1-.66,7.85,7.85,0,0,1-.95-1.21l-3-4.57.82-.31,3,4.61a7.35,7.35,0,0,0,.58.79,1.78,1.78,0,0,0,.6.49.84.84,0,0,0,.68,0c.24-.09.38-.23.4-.42a1.16,1.16,0,0,0-.14-.66,8.09,8.09,0,0,0-.47-.83l-3-4.61.82-.31,2.95,4.57a6.61,6.61,0,0,1,.68,1.31,1.41,1.41,0,0,1,.06,1A1.32,1.32,0,0,1,409.8,267.25Z" style="fill:#263238"></path><path d="M412.29,266.21l-4.45-6.89,1.25-.47a2.7,2.7,0,0,1,1.14-.2,1.81,1.81,0,0,1,1,.36,3.48,3.48,0,0,1,.88,1,3.86,3.86,0,0,1,.39.75,1.61,1.61,0,0,1,.12.65.78.78,0,0,1-.23.49l3.1,3.12-.83.32-2.89-2.93-.67.25,2.08,3.23ZM410.62,262l.33-.12a1.27,1.27,0,0,0,.53-.33.54.54,0,0,0,.11-.47,3,3,0,0,0-1.1-1.53,1.15,1.15,0,0,0-1,0l-.38.14Z" style="fill:#263238"></path><path d="M416.25,264.72l-4.45-6.89,2.39-.91.47.72-1.54.58,1.47,2.28,1.25-.47.44.68-1.25.47,1.63,2.52,1.55-.58.45.69Z" style="fill:#263238"></path><path d="M371.9,262.45l-12.31-20.22s4.75,5.45,7.39,6.86,6.85,5.62,7.73,7.56a12.91,12.91,0,0,1,1.05,3.69s3-5.45,5.45-6.33,22-5.63,25.32-6.5a42.33,42.33,0,0,1,7.56-1.06Z" style="fill:#fff"></path><path d="M371.9,263a.51.51,0,0,1-.43-.24l-12.3-20.22a.49.49,0,0,1,.13-.66.5.5,0,0,1,.67.07c0,.06,4.72,5.4,7.24,6.75s7,5.69,8,7.79a13.49,13.49,0,0,1,.84,2.49c1.06-1.7,3.15-4.72,5-5.39s11.71-3.11,19-4.92c3-.74,5.37-1.34,6.36-1.6a42.63,42.63,0,0,1,7.66-1.07.49.49,0,0,1,.52.4.52.52,0,0,1-.32.57l-42.19,16A.47.47,0,0,1,371.9,263Zm-9.4-16.9,9.61,15.78,3.23-1.22a.57.57,0,0,1-.07-.22,12.65,12.65,0,0,0-1-3.54c-.81-1.77-4.91-5.93-7.52-7.32A22.38,22.38,0,0,1,362.5,246.05Zm48,1.23a29.49,29.49,0,0,0-3.85.71c-1,.26-3.4.86-6.37,1.6-6.85,1.7-17.19,4.28-18.9,4.89s-4,4-5,5.72Z" style="fill:#263238"></path><path d="M376.47,274.05s.17,4.39,1,4.74,9.14,2.29,9.5,1.59,1.75-2.82.52-4.05-9-2.81-9-2.81A2.32,2.32,0,0,0,376.47,274.05Z" style="fill:#fff"></path><path d="M386.14,281c-2.75,0-8.73-1.69-8.8-1.72-1-.41-1.3-3.43-1.37-5.19a.46.46,0,0,1,.18-.4,2.8,2.8,0,0,1,2.59-.62c.74.15,7.86,1.63,9.16,2.93s.24,3.37-.29,4.34l-.15.28C387.33,280.87,386.84,281,386.14,281ZM377,274.29c.1,1.95.44,3.81.75,4,1,.41,7.79,1.88,8.91,1.68a1.62,1.62,0,0,1,.1-.18c.44-.82,1.27-2.33.45-3.15s-5.78-2.08-8.71-2.68A1.82,1.82,0,0,0,377,274.29Z" style="fill:#263238"></path><path d="M380,279.67s-.52,4.22.36,4.93,7,.17,8.43,0,3.52-2.29,2.29-3.34-5.63-1.23-5.63-1.23Z" style="fill:#fff"></path><path d="M383.16,285.45A6.65,6.65,0,0,1,380,285c-1-.8-.7-4-.53-5.38a.5.5,0,0,1,.53-.44l5.44.36c.46,0,4.6.21,5.92,1.35a1.53,1.53,0,0,1,.47,1.69,4.16,4.16,0,0,1-3,2.52S385.7,285.45,383.16,285.45Zm-2.73-5.25c-.2,1.94-.11,3.75.22,4,.61.45,5.6.2,8.06-.11a3.2,3.2,0,0,0,2.18-1.82.53.53,0,0,0-.16-.64c-.8-.69-3.68-1.05-5.32-1.11Z" style="fill:#263238"></path><path d="M382.27,284.77s.53,4.92,1.58,5.45,8.09.35,9-.35,1.93-2.64.52-3.17a69.38,69.38,0,0,0-6.85-1.4l-1.94-.53Z" style="fill:#fff"></path><path d="M387.22,291a11.59,11.59,0,0,1-3.59-.36c-1.17-.59-1.69-4.28-1.86-5.84a.49.49,0,0,1,.13-.39.48.48,0,0,1,.37-.17h2.28l.14,0,1.93.53a64,64,0,0,1,6.9,1.42,1.47,1.47,0,0,1,1,1.16,3.65,3.65,0,0,1-1.38,2.86C392.49,290.77,389.66,291,387.22,291Zm-4.39-5.76c.29,2.27.85,4.3,1.24,4.5.95.48,7.73.24,8.43-.29a2.66,2.66,0,0,0,1-1.93c0-.13-.08-.27-.35-.38-1.35-.5-6.71-1.37-6.76-1.38l-1.92-.52Z" style="fill:#263238"></path><path d="M386.31,291.1a36.15,36.15,0,0,0,3.69,4.75c1.23,1,4.57,2.63,6,2.1a1.67,1.67,0,0,0,0-3.16,29.76,29.76,0,0,1-4.22-2.11L390,290.75Z" style="fill:#fff"></path><path d="M395.32,298.56a11.09,11.09,0,0,1-5.64-2.33,35.44,35.44,0,0,1-3.78-4.85.5.5,0,0,1,0-.5.53.53,0,0,1,.4-.28l3.7-.35a.49.49,0,0,1,.41.16l1.71,1.88a28.29,28.29,0,0,0,4.06,2,2.06,2.06,0,0,1,1.46,1.95,2.24,2.24,0,0,1-1.44,2.15A2.47,2.47,0,0,1,395.32,298.56Zm-8.12-7a29,29,0,0,0,3.13,4c1.24,1.06,4.36,2.43,5.47,2a1.24,1.24,0,0,0,.8-1.2,1.06,1.06,0,0,0-.78-1,29.3,29.3,0,0,1-4.32-2.16l-.11-.09-1.59-1.75Z" style="fill:#263238"></path><path d="M478.07,199s-4,1-4.39,2.64,1.58,7.38,3.51,8.26,6.15.53,6.15.53Z" style="fill:#fff"></path><path d="M481.42,211a12.07,12.07,0,0,1-4.44-.65c-2.2-1-4.17-7.14-3.79-8.82s4-2.83,4.75-3a.48.48,0,0,1,.58.27l5.28,11.43a.49.49,0,0,1-.41.7C483.31,210.92,482.49,211,481.42,211Zm-3.62-11.4c-1.52.45-3.46,1.33-3.64,2.14-.33,1.49,1.58,7,3.24,7.7,1.33.61,3.92.58,5.18.53Z" style="fill:#263238"></path><path d="M495.3,189.15a75.87,75.87,0,0,1-5.8-12.84c-2.29-6.85-4.75-13.53-6.16-11.77s-1.23,11.6-.52,14.06,3.51,12.48,3.51,12.48L476.84,196s6.15,13.71,6.5,14.42,1.06,4.92,3.17,4.92,4.74-1.76,4.74-1.76,2.46,4.22,4.22,4.92a32.2,32.2,0,0,0,4.22,1.23s7.38,38.32,9.32,48.52,5.58,18.29,13,17.93,8.13-1.94,10.77-8.09,3-11.6.88-17-25.14-45-26.55-47.64-8.26-17.22-9-19.16A32.88,32.88,0,0,0,495.3,189.15Z" style="fill:#fff"></path><path d="M521.5,286.7c-6.39,0-10.64-6-13-18.36-1.82-9.58-8.54-44.46-9.26-48.19a31.18,31.18,0,0,1-4-1.18c-1.58-.63-3.49-3.54-4.2-4.7a10.23,10.23,0,0,1-4.58,1.57c-2.05,0-2.91-2.91-3.37-4.46-.09-.31-.19-.63-.24-.74-.36-.71-6.27-13.87-6.52-14.43a.5.5,0,0,1,.23-.65l9.13-4.74c-.53-1.87-2.78-9.91-3.4-12.08-.69-2.4-1-12.51.61-14.52a1.11,1.11,0,0,1,1.08-.45c1.42.25,3,3.49,5.94,12.39a77.36,77.36,0,0,0,5.75,12.72,32.7,32.7,0,0,1,2.86,5.19c.72,2,7.58,16.55,8.94,19.1.34.64,2,3.52,4.28,7.51,7.23,12.59,20.68,36,22.28,40.18,2.13,5.51,1.85,11.05-.88,17.43-2.64,6.16-3.44,8-11.21,8.39Zm-30.25-73.62h.12a.51.51,0,0,1,.32.24c.66,1.13,2.66,4.18,4,4.71a29.75,29.75,0,0,0,4.14,1.2.52.52,0,0,1,.38.4c.08.38,7.41,38.44,9.32,48.52,2.29,12.08,6.39,17.82,12.45,17.52,7.14-.34,7.75-1.77,10.33-7.79s2.9-11.42.87-16.67c-1.58-4.08-15-27.47-22.21-40-2.3-4-4-6.89-4.31-7.54-1.36-2.56-8.27-17.24-9-19.23a33.54,33.54,0,0,0-2.76-5v0A77.15,77.15,0,0,1,489,176.47c-.94-2.84-3.82-11.48-5.16-11.72,0,0-.11.07-.13.1-1.21,1.51-1.17,11-.43,13.61s3.51,12.48,3.51,12.48a.49.49,0,0,1-.25.58l-9.07,4.71c1.05,2.33,6,13.35,6.3,14a8.66,8.66,0,0,1,.31.9c.36,1.22,1.11,3.75,2.41,3.75,1.93,0,4.44-1.66,4.47-1.68A.53.53,0,0,1,491.25,213.08Z" style="fill:#263238"></path><polygon points="480.49 202.43 479.51 202.23 480.27 198.66 491.2 192.92 491.66 193.81 481.15 199.32 480.49 202.43" style="fill:#263238"></polygon><path d="M482.78,208.57l-1-.17c.09-.53.59-3.19,1.37-4s8.84-5.51,9.76-6.06l.51.86c-3.44,2-9.09,5.42-9.57,5.9A10.07,10.07,0,0,0,482.78,208.57Z" style="fill:#263238"></path><rect x="485.97" y="189.26" width="5.12" height="1" transform="translate(-28.07 278.04) rotate(-30.93)" style="fill:#263238"></rect><path d="M491.67,213.86l-.83-.56c.55-.8,1.31-2.33,1-3l-.53-1.23.92-.39.53,1.23C493.39,211.31,491.84,213.61,491.67,213.86Z" style="fill:#263238"></path><rect x="489.13" y="207.72" width="5.12" height="1" transform="translate(-42.22 200.8) rotate(-22.15)" style="fill:#263238"></rect></g><g id="freepik--character-1--inject-29"><path d="M250.08,323.11s-32.51,17.65-33.91,20.67-15.09,58.07-15.09,58.07H351.91s5.35-7.48,1.93-14.23c-8.65-17.06-24.39-51.4-25.9-54.09-2.1-3.72-39.3-14.37-42.09-15.3S262.86,314.52,250.08,323.11Z" style="fill:#5050D2"></path><path d="M351.91,402.35H201.08a.51.51,0,0,1-.4-.19.51.51,0,0,1-.09-.43c.56-2.25,13.73-55.13,15.13-58.16s30.66-19,34.11-20.89c13.33-8.95,33.89-5.68,36.18-4.92l3.22,1c17.35,5.21,37.47,11.57,39.14,14.54.59,1.05,3.23,6.66,6.87,14.42,5.79,12.32,13.72,29.2,19,39.69,3.53,6.95-1.74,14.44-2,14.75A.49.49,0,0,1,351.91,402.35Zm-150.19-1H351.64c.8-1.24,4.69-7.72,1.75-13.51-5.32-10.5-13.26-27.39-19.05-39.72-3.5-7.45-6.27-13.33-6.84-14.35-1.12-2-14.09-6.72-38.56-14.07l-3.24-1c-3.33-1.11-23.14-3.39-35.34,4.82l0,0c-13,7.06-32.72,18.34-33.69,20.44C215.35,346.76,203.23,395.27,201.72,401.35Zm48.36-78.24h0Z" style="fill:#263238"></path><path d="M239.17,402.12a.51.51,0,0,1-.48-.34c0-.11-3.64-10.63-7.11-21.06-7.16-21.54-6.85-21.67-6.24-21.93s.8.34,1,.79a.49.49,0,0,1-.2.67c1.17,4.82,8.44,26.52,13.47,41.21a.5.5,0,0,1-.31.63A.45.45,0,0,1,239.17,402.12Z" style="fill:#263238"></path><path d="M236.15,392.36a.5.5,0,0,1-.49-.39l-6.74-30.43a.5.5,0,0,1,1-.21l6.74,30.42a.5.5,0,0,1-.38.6Z" style="fill:#263238"></path><line x1="312.1" y1="355.4" x2="320.69" y2="401.62" style="fill:#fff"></line><path d="M320.69,402.12a.51.51,0,0,1-.49-.41l-8.59-46.22a.5.5,0,0,1,.4-.58.48.48,0,0,1,.58.39l8.6,46.23a.5.5,0,0,1-.4.58Z" style="fill:#263238"></path><path d="M326.15,383.91a.49.49,0,0,1-.37-.83c.27-.3,6.68-7.31,14.23-7.09a.5.5,0,0,1,.48.52.51.51,0,0,1-.51.48c-7.08-.24-13.39,6.69-13.46,6.76A.49.49,0,0,1,326.15,383.91Z" style="fill:#263238"></path><path d="M327.63,377.24a.5.5,0,0,1-.26-.93c.27-.16,6.64-4.05,12.93-3.28a.5.5,0,1,1-.12,1c-5.93-.71-12.22,3.11-12.28,3.15A.54.54,0,0,1,327.63,377.24Z" style="fill:#263238"></path><path d="M249.16,330.31s13.72,28.37,22.09,33.25,15.3-40.68,15.3-40.68Z" style="fill:#263238"></path><path d="M272.51,364.42A3,3,0,0,1,271,364c-8.39-4.9-21.72-32.3-22.28-33.46a.49.49,0,0,1,0-.44.5.5,0,0,1,.35-.27l37.39-7.43a.49.49,0,0,1,.45.13.52.52,0,0,1,.15.43c-.24,1.54-5.82,37.61-13.25,41.16A2.91,2.91,0,0,1,272.51,364.42Zm-22.62-33.75c2,4.07,14.13,28.09,21.61,32.45a1.85,1.85,0,0,0,1.87.09c6.42-3.07,11.75-34.56,12.58-39.7Z" style="fill:#263238"></path><path d="M256.82,335s10.12,22,15.23,21.12,10.78-26.93,10.78-26.93S269.36,340.07,256.82,335Z" style="fill:#fff"></path><path d="M271.75,356.6c-5.39,0-14.36-19.2-15.38-21.43a.5.5,0,0,1,.09-.56.49.49,0,0,1,.55-.12c12.12,4.94,25.38-5.62,25.51-5.73a.51.51,0,0,1,.58,0,.51.51,0,0,1,.22.54c-.59,2.69-5.9,26.35-11.18,27.31Zm-14-20.75c4.07,8.65,10.83,20.35,14.17,19.73s7.75-15,10.1-25.24C278.68,332.71,268,339.24,257.79,335.85Z" style="fill:#263238"></path><path d="M234.27,299.58s9.75,25.75,11.94,29.28,13.29,10.26,20.7,11.44,13.29-1.51,18.17-9.42,4-14.13,4.54-17.33-3.2-21.54-3.2-21.54l-2.35-8.41-25.91-4.2Z" style="fill:#fff"></path><path d="M270.13,341.07a20.05,20.05,0,0,1-3.3-.28c-7.4-1.17-18.68-7.85-21-11.67-2.19-3.53-11.59-28.3-12-29.36a.5.5,0,0,1,.14-.56L257.84,279a.51.51,0,0,1,.4-.11l25.91,4.21a.49.49,0,0,1,.4.36l2.35,8.41c.17.79,3.73,18.5,3.21,21.75-.1.65-.15,1.45-.2,2.38a29.46,29.46,0,0,1-4.41,15.13C281.36,337.85,276.42,341.07,270.13,341.07Zm-35.27-41.33c1.15,3,9.77,25.62,11.78,28.86s12.82,10,20.34,11.21,13.07-1.74,17.67-9.19A28.52,28.52,0,0,0,288.91,316c.06-1,.1-1.79.22-2.49.38-2.46-1.92-15.05-3.2-21.36L283.67,284l-25.37-4.11Z" style="fill:#263238"></path><path d="M231.74,271.15l-6.22,16.49L231.41,304l4.71,1.68c1.51,1.52,4.37,1.18,4.37,1.18l5.89-13.8s.84,7.74,4.37,10.6a43.55,43.55,0,0,0,7.91,4.88s2-4.88,3-6.56,3.7-8.41,4-8.92-1,13-1,13.46,1.68.34,10.6-6.22,9.59-10.1,9.59-10.1l2.69,10.43.84-15.14s-4-14.3-7.57-18.17-14.64-8.92-24.9-7.57S236,263.24,231.74,271.15Z" style="fill:#263238"></path><path d="M258.66,309a.52.52,0,0,1-.21,0,43.67,43.67,0,0,1-8-4.95c-2.62-2.12-3.81-6.67-4.29-9.18L241,307a.52.52,0,0,1-.4.3c-.12,0-3,.33-4.7-1.24l-4.61-1.65a.5.5,0,0,1-.3-.3l-5.89-16.32a.53.53,0,0,1,0-.35L231.28,271a.17.17,0,0,1,0-.05c4.47-8.41,15-10.45,24.61-11.71,10.11-1.31,21.57,3.61,25.33,7.73,3.57,3.92,7.52,17.79,7.68,18.38a.41.41,0,0,1,0,.16l-.84,15.14a.49.49,0,0,1-.45.47.5.5,0,0,1-.53-.37l-2.34-9.05c-.95,1.64-3.32,4.69-9.16,9-9.66,7.11-10.66,6.61-11,6.41a.63.63,0,0,1-.36-.59c0-.15.07-.9.26-3s.51-5.61.69-8c-.08.17-.15.33-.22.5-1,2.29-2.2,5.15-2.83,6.2-1,1.63-3,6.44-3,6.49a.48.48,0,0,1-.28.28A.52.52,0,0,1,258.66,309Zm-12.28-16.48h.07a.5.5,0,0,1,.43.44c0,.07.86,7.57,4.19,10.26a42.61,42.61,0,0,0,7.33,4.59c.55-1.29,2-4.74,2.86-6.14.6-1,1.85-3.93,2.77-6.07.82-1.91,1.14-2.65,1.28-2.86a.53.53,0,0,1,.6-.21c.52.18.55.19-.43,11-.1,1-.19,2-.23,2.55.71-.22,3-1.26,9.77-6.25,8.56-6.3,9.39-9.76,9.4-9.8a.5.5,0,0,1,.48-.39.52.52,0,0,1,.49.37l1.89,7.31.66-11.84c-.33-1.15-4.16-14.3-7.44-17.89-3.62-4-14.67-8.7-24.46-7.41-9.31,1.22-19.58,3.19-23.84,11.15l-6.15,16.28,5.75,15.93,4.49,1.6a.57.57,0,0,1,.18.12,5.24,5.24,0,0,0,3.68,1l5.77-13.51A.5.5,0,0,1,246.38,292.52Z" style="fill:#263238"></path><path d="M255.14,319.7a10.51,10.51,0,0,1-4.45-1,.5.5,0,1,1,.47-.88c.22.12,5.45,2.79,9.67-1.59a.5.5,0,0,1,.72.69A8.67,8.67,0,0,1,255.14,319.7Z" style="fill:#263238"></path><path d="M275.54,314.21a9.21,9.21,0,0,1-3.27-.54A.49.49,0,0,1,272,313a.5.5,0,0,1,.65-.27c.22.09,5.47,2.15,10.21-2.91a.5.5,0,1,1,.73.69A10.82,10.82,0,0,1,275.54,314.21Z" style="fill:#263238"></path><path d="M268.91,326.93a7.83,7.83,0,0,1-4-1.36.51.51,0,0,1-.11-.7.49.49,0,0,1,.69-.12s2.21,1.54,4.14,1.1,3-2.73,3-2.75a.5.5,0,0,1,.9.42c-.05.11-1.3,2.75-3.7,3.3A4.07,4.07,0,0,1,268.91,326.93Z" style="fill:#263238"></path><path d="M268.1,331.69a29.21,29.21,0,0,1-7.74-1.35.49.49,0,0,1-.32-.63.5.5,0,0,1,.63-.32c.05,0,5.65,1.81,9.18,1.16s5.43-2.89,7.39-6.31a.51.51,0,0,1,.68-.19.5.5,0,0,1,.19.68c-2,3.58-4.2,6.1-8.09,6.81A10.75,10.75,0,0,1,268.1,331.69Z" style="fill:#263238"></path><path d="M248.23,316.91a1,1,0,0,1-.87-.51,1,1,0,0,1,.38-1.36,36.16,36.16,0,0,1,12.66-3.83,1,1,0,1,1,.23,2,34.8,34.8,0,0,0-11.91,3.58A1.05,1.05,0,0,1,248.23,316.91Z" style="fill:#263238"></path><path d="M270.1,310.68a1,1,0,0,1-.52-1.85c.24-.15,6.06-3.7,12.36-3.34a1,1,0,1,1-.12,2c-5.67-.29-11.14,3-11.19,3A1,1,0,0,1,270.1,310.68Z" style="fill:#263238"></path><path d="M237,306.31s-4-3.87-5.89-.16,1.68,7.4,3.2,9.08,7.4,3,7.4,3Z" style="fill:#fff"></path><path d="M241.67,318.76h-.11c-.25-.06-6.06-1.4-7.66-3.18l-.17-.19c-1.64-1.81-5-5.58-3.11-9.46a3.08,3.08,0,0,1,2.22-1.83c2.11-.36,4.37,1.77,4.46,1.86a.36.36,0,0,1,.12.18l4.71,11.95a.5.5,0,0,1-.08.51A.52.52,0,0,1,241.67,318.76ZM233.35,305a2,2,0,0,0-.34,0,2.1,2.1,0,0,0-1.49,1.3c-1.64,3.27,1.35,6.57,2.95,8.34l.17.19c1,1.08,4.25,2.12,6.21,2.64l-4.31-10.93A5.82,5.82,0,0,0,233.35,305Z" style="fill:#263238"></path><path d="M286.42,292s1.52-6.05,3.7-2.69,3.2,5.39,2.36,10.43a20.79,20.79,0,0,1-3.2,8.25Z" style="fill:#fff"></path><path d="M289.28,308.5l-.11,0a.5.5,0,0,1-.38-.4l-2.86-16a.5.5,0,0,1,0-.21c.16-.63,1-3.8,2.64-4.07.7-.11,1.36.3,2,1.23,2.34,3.6,3.28,5.71,2.43,10.78a21.27,21.27,0,0,1-3.28,8.46A.52.52,0,0,1,289.28,308.5ZM286.93,292l2.62,14.6a21.76,21.76,0,0,0,2.44-7c.83-5-.21-6.89-2.28-10.08-.21-.31-.61-.84-1-.78C288.05,288.93,287.27,290.76,286.93,292Z" style="fill:#263238"></path><path d="M308.27,361.09l-15,37,.32,2.77,2.78-2.61,15-35.83a1.71,1.71,0,0,0-.84-2.2h0A1.71,1.71,0,0,0,308.27,361.09Z" style="fill:#fff"></path><path d="M293.62,401.33l-.17,0a.49.49,0,0,1-.32-.41l-.33-2.77a.43.43,0,0,1,0-.25l15-37a2.2,2.2,0,1,1,4.07,1.67l-15,35.84a.66.66,0,0,1-.12.17L294,401.2A.56.56,0,0,1,293.62,401.33Zm.19-3.2.2,1.66,2-1.86,15-35.73a1.2,1.2,0,0,0-.6-1.55,1.18,1.18,0,0,0-1.62.63h0Zm14.46-37h0Z" style="fill:#263238"></path><path d="M326.4,385.89s-12.38-12.4-14.47-12.17-17.19,7.9-17.19,7.9l-1.4,12.78a2.37,2.37,0,0,0,2.79-.24c1.4-1.16,3.25-7.89,3.25-7.89l8.83-2.79s-7,6.5-7.2,7.2-5.11,8.83-4.18,9.52,3.25.24,3.25.24a5.07,5.07,0,0,0,2.79,1.16c1.86.23,4.88-1.4,4.88-1.4a2.55,2.55,0,0,0,2.09.7c1.16-.23,6.5-3.25,6.5-3.25s6.27,4.88,8.59,4.64,7.44-.69,7.44-.69h17.42s6,.46,7.43-4.42-5.25-13.62-11.29-15.25-9.85,1.31-13.11,2.47A31.16,31.16,0,0,1,326.4,385.89Z" style="fill:#fff"></path><path d="M324.78,402.8c-2.34,0-7.19-3.57-8.48-4.55-1.21.67-5.28,2.92-6.37,3.14a2.9,2.9,0,0,1-2.25-.59c-.84.41-3.23,1.5-4.87,1.29a5.8,5.8,0,0,1-2.87-1.12c-.68.11-2.5.32-3.41-.37s-.14-2.43,3.15-8.46c.39-.72.8-1.47.86-1.62.19-.58,3.2-3.51,5.73-5.9l-6.48,2c-.39,1.39-2,6.76-3.34,7.89a2.86,2.86,0,0,1-3.38.26.48.48,0,0,1-.22-.47l1.39-12.77a.49.49,0,0,1,.27-.39c1.56-.79,15.24-7.72,17.36-7.95s11.58,9,14.71,12.13a30.9,30.9,0,0,0,6.08-1.43c.67-.24,1.38-.56,2.14-.91,2.82-1.29,6.34-2.9,11.26-1.57,3.59,1,7.75,4.56,10.11,8.75,1.53,2.69,2.07,5.22,1.53,7.12-1.49,5.21-7.89,4.78-7.95,4.77H332.37s-5.08.46-7.39.69Zm-8.44-5.65a.5.5,0,0,1,.31.1c1.7,1.33,6.5,4.71,8.23,4.55,2.33-.24,7.44-.7,7.44-.7h17.47c.27,0,5.69.37,6.95-4.05.47-1.64,0-3.9-1.44-6.36-2.24-4-6.15-7.37-9.5-8.28-4.57-1.23-7.77.23-10.59,1.52-.77.35-1.5.69-2.22.94a30.66,30.66,0,0,1-6.54,1.51.52.52,0,0,1-.41-.14c-6-6-12.91-12.09-14.06-12-1.45.16-10.73,4.66-16.77,7.73l-1.33,12.16a1.84,1.84,0,0,0,1.93-.33c.93-.77,2.39-5.1,3.09-7.65a.51.51,0,0,1,.33-.34l8.83-2.79a.5.5,0,0,1,.58.23.49.49,0,0,1-.09.61,97.69,97.69,0,0,0-7.08,7c-.06.18-.32.67-.91,1.75-.95,1.73-3.42,6.26-3.35,7.23a5.05,5.05,0,0,0,2.77.1.46.46,0,0,1,.45.13,4.62,4.62,0,0,0,2.5,1c1.39.18,3.78-.91,4.58-1.34a.5.5,0,0,1,.59.09,2,2,0,0,0,1.64.56,49.55,49.55,0,0,0,6.35-3.2A.57.57,0,0,1,316.34,397.15Z" style="fill:#263238"></path><path d="M332.37,391.18a.53.53,0,0,1-.3-.09l-8.36-6a.51.51,0,0,1-.11-.7.49.49,0,0,1,.7-.11l8.36,6a.5.5,0,0,1,.11.69A.49.49,0,0,1,332.37,391.18Z" style="fill:#263238"></path><path d="M316.34,398.15a.49.49,0,0,1-.42-.23.5.5,0,0,1,.15-.69l6.5-4.18a.5.5,0,0,1,.54.84l-6.5,4.18A.53.53,0,0,1,316.34,398.15Z" style="fill:#263238"></path><path d="M300.08,400.94a.49.49,0,0,1-.32-.12.51.51,0,0,1-.06-.71c.05-.06,5.25-6.2,5.72-6.79s7.72-8.31,8-8.64a.5.5,0,0,1,.73.69c-2.09,2.22-7.6,8.1-8,8.57s-5.52,6.56-5.74,6.82A.49.49,0,0,1,300.08,400.94Z" style="fill:#263238"></path><path d="M307.75,400.7a.49.49,0,0,1-.38-.82c.34-.39,8.31-9.53,10.88-10.88a.5.5,0,0,1,.46.89c-2.4,1.26-10.51,10.55-10.59,10.64A.51.51,0,0,1,307.75,400.7Z" style="fill:#263238"></path><path d="M260.08,400.83s-4.72-4.73-7.66-5.38-20.38,2.28-27.71,3.26-22.5,1.79-22.5,1.79l-1.13,1.35h59Z" style="fill:#fff"></path><path d="M260.08,402.35h-59a.5.5,0,0,1-.46-.29.51.51,0,0,1,.07-.53l1.14-1.35a.49.49,0,0,1,.35-.17c.16,0,15.23-.83,22.46-1.79,1.77-.24,4.13-.59,6.73-1,8.39-1.25,18.84-2.8,21.16-2.29,3,.68,7.71,5.32,7.91,5.52a.5.5,0,0,1,.14.35v1A.5.5,0,0,1,260.08,402.35Zm-57.93-1h57.43V401c-.81-.79-4.79-4.55-7.27-5.1-2.13-.47-12.92,1.13-20.8,2.29-2.6.39-5,.74-6.74,1-6.79.9-20.43,1.68-22.32,1.78Z" style="fill:#263238"></path><path d="M260.08,400.83s4.73-4.73,7.67-5.38,20.37,2.28,27.71,3.26S318,400.5,318,400.5l1.13,1.35h-59Z" style="fill:#fff"></path><path d="M319.09,402.35h-59a.5.5,0,0,1-.5-.5v-1a.51.51,0,0,1,.15-.35c.2-.2,4.87-4.84,7.91-5.52,2.32-.51,12.76,1,21.16,2.29,2.6.38,5,.73,6.73,1,7.23,1,22.3,1.78,22.46,1.79a.49.49,0,0,1,.35.17l1.14,1.35a.5.5,0,0,1-.39.82Zm-58.51-1H318l-.3-.36c-1.89-.1-15.53-.88-22.32-1.78-1.78-.24-4.14-.59-6.74-1-7.88-1.16-18.67-2.76-20.8-2.29-2.49.55-6.46,4.31-7.28,5.1Z" style="fill:#263238"></path><path d="M198.13,393.17l2.78,2.77s5.38,1,6.84.82,2.45,0,2.45,1.14-1.31,2.12-3.91,2.93a26.48,26.48,0,0,1-5.21,1h-13.7Z" style="fill:#fff"></path><path d="M187.38,402.35a.5.5,0,0,1-.48-.33.52.52,0,0,1,.16-.56l10.76-8.68a.49.49,0,0,1,.67,0l2.66,2.66a42.52,42.52,0,0,0,6.55.78,3.3,3.3,0,0,1,2.51.41,1.58,1.58,0,0,1,.49,1.23c0,1.4-1.4,2.51-4.26,3.41a27.53,27.53,0,0,1-5.33,1Zm1.41-1h12.29a26.81,26.81,0,0,0,5.06-1c2.33-.73,3.56-1.57,3.56-2.45a.59.59,0,0,0-.16-.49,2.64,2.64,0,0,0-1.73-.16c-1.52.17-6.77-.78-7-.82a.47.47,0,0,1-.27-.14l-2.45-2.45Z" style="fill:#263238"></path><path d="M198.13,393.17s-6.68-6-7.82-5.71-5.38,14.84-4.08,15,2,.49,3.1,0S198.13,393.17,198.13,393.17Z" style="fill:#fff"></path><path d="M188.14,403.22a6.91,6.91,0,0,1-1.17-.14c-.24,0-.5-.09-.8-.12s-.62-.23-.67-1c-.18-2.25,3.11-14.57,4.67-15,1.21-.36,5.73,3.49,8.3,5.82a.5.5,0,0,1,0,.7c-1.29,1.48-7.8,8.91-9,9.42A3.49,3.49,0,0,1,188.14,403.22ZM186.49,402c.24,0,.46.07.66.11a3,3,0,0,0,2-.1c.71-.32,5.17-5.21,8.3-8.79-2.82-2.52-6.13-5.12-7-5.25C189.33,389.16,186.19,400.3,186.49,402Z" style="fill:#263238"></path><path d="M190.31,387.46s-5.71-3.58-8-3.58-3.26,3.58-2.93,5.54.16,13,1.46,13.2a10.42,10.42,0,0,0,3.59-.65Z" style="fill:#fff"></path><path d="M181.22,403.14a3,3,0,0,1-.43,0c-1.13-.14-1.41-2.59-1.68-9.89-.07-1.69-.12-3.16-.22-3.73a7,7,0,0,1,1.29-5.06,2.79,2.79,0,0,1,2.14-1.06c2.4,0,8,3.51,8.26,3.66a.51.51,0,0,1,.19.61l-5.87,14.51a.5.5,0,0,1-.29.28A12.5,12.5,0,0,1,181.22,403.14Zm-.22-1a9.67,9.67,0,0,0,3.06-.57l5.63-13.9c-1.79-1.09-5.73-3.29-7.37-3.29a1.78,1.78,0,0,0-1.37.71,6,6,0,0,0-1.07,4.25c.11.63.16,2.05.23,3.86C180.2,395.87,180.41,401.37,181,402.14Z" style="fill:#263238"></path><path d="M179.55,386.81s-5.22,1.14-5.71,2.61,1,13.53,1,13.53a25.54,25.54,0,0,0,2.61-.33c.65-.16,2.45-7.82,2.45-7.82Z" style="fill:#fff"></path><path d="M174.82,403.45a.5.5,0,0,1-.49-.44c-.25-2-1.46-12.25-1-13.75s5.16-2.74,6.07-2.94a.49.49,0,0,1,.42.1.5.5,0,0,1,.19.37l.33,8a.59.59,0,0,1,0,.13c-1.86,8-2.5,8.12-2.81,8.2-.68.17-2.6.33-2.69.34Zm4.25-16c-2.21.55-4.53,1.47-4.75,2.15-.32.95.39,8.17.94,12.83.62-.06,1.5-.16,1.94-.25a44.73,44.73,0,0,0,2.17-7.41Zm-1.91,14.79Z" style="fill:#263238"></path><path d="M173.52,390.89s-4.24,1.95-4.24,3.42,1.3,8,2.12,8.8,3.42-.16,3.42-.16Z" style="fill:#fff"></path><path d="M172.5,403.94a2,2,0,0,1-1.45-.47c-1-1-2.27-7.73-2.27-9.16,0-1.7,3.77-3.53,4.53-3.88a.51.51,0,0,1,.45,0,.52.52,0,0,1,.26.38l1.3,12.07a.51.51,0,0,1-.32.52A8,8,0,0,1,172.5,403.94Zm.6-12.29c-1.7.87-3.32,2.05-3.32,2.66,0,1.65,1.37,7.85,2,8.45.34.34,1.58.15,2.53-.15Z" style="fill:#263238"></path></g></svg>
